<?xml version="1.0" encoding="UTF-8"?>
<!-- Generator: Adobe Illustrator 16.2.0, SVG Export Plug-In . SVG Version: 6.00 Build 0)  -->
<!DOCTYPE svg PUBLIC "-//W3C//DTD SVG 1.1//EN" "http://www.w3.org/Graphics/SVG/1.1/DTD/svg11.dtd">
<svg version="1.1" id="Layer_1" xmlns="http://www.w3.org/2000/svg" xmlns:xlink="http://www.w3.org/1999/xlink" x="0px" y="0px" width="221.313px" height="81.859px" viewBox="0 0 221.313 81.859" enable-background="new 0 0 221.313 81.859" xml:space="preserve">
<g>
	<g>
		<path fill="#0028A0" d="M32.415,25.472c-1.861-0.194-1.826-1.23-1.944-3.207c-0.321-5.723-0.361-13.061-0.438-17.27    c-0.041-2.776,0.276-3.488,2.772-3.775l0.841-0.077c0.202-0.16,0.202-0.833-0.036-0.99c-1.24,0.079-2.543,0.112-3.536,0.112    c-0.796,0-1.624,0-2.98-0.112c-0.081,1.826-1.187,4.012-3.013,7.616l-3.733,7.579c-0.989,2.029-1.984,4.098-3.055,5.955h-0.078    c-0.96-1.747-1.828-3.572-2.74-5.431L9.95,6.7C8.725,4.165,7.726,1.699,7.887,0.153c-1.311,0.112-2.38,0.112-3.296,0.112    c-0.99,0-1.941-0.034-3.134-0.112C1.137,0.31,1.097,0.906,1.3,1.143L1.93,1.22c2.421,0.4,2.748,0.913,2.661,3.416    c-0.079,2.179-0.239,5.552-0.439,8.848c-0.231,3.935-0.429,6.112-0.669,8.738c-0.238,2.773-0.797,3.055-2.461,3.25l-0.873,0.117    c-0.246,0.202-0.162,0.803,0.084,0.992c1.352-0.074,2.774-0.112,4.042-0.112c1.508,0,3.059,0.038,4.407,0.112    c0.278-0.112,0.32-0.751,0.044-0.992l-1.511-0.117c-1.553-0.116-1.784-0.751-1.784-3.689c0-3.37,0.156-6.911,0.276-9.327    C5.831,10.152,5.948,7.847,6.1,5.387h0.083c0.87,1.829,1.705,3.895,2.543,5.715l3.563,7.666c0.915,1.943,2.816,5.838,3.502,7.935    c0.075,0.125,0.276,0.162,0.353,0.162c0.162,0,0.317-0.037,0.392-0.162c0.72-1.824,2.51-5.549,4.29-9.049l3.531-6.945    c0.796-1.542,2.298-4.719,2.58-5.154h0.079L27.135,22.1c0,2.542,0,3.178-1.942,3.372l-1.144,0.117    c-0.244,0.241-0.204,0.803,0.078,0.992c1.619-0.074,3.408-0.112,4.793-0.112c1.431,0,3.062,0.038,4.691,0.112    c0.272-0.155,0.313-0.751,0.079-0.992L32.415,25.472z"/>
		<path fill="#0028A0" d="M44.026,8.686c-5.754,0-9.797,4.052-9.797,9.326c0,5.003,3.649,9.007,9.797,9.007    c5.593,0,9.646-3.887,9.646-9.241C53.672,12.924,50.415,8.686,44.026,8.686z M44.905,25.825c-4.58,0.393-6.816-3.843-7.166-7.918    c-0.477-5.575,2.475-7.78,5.324-8.025c4.356-0.371,6.744,3.726,7.104,7.954C50.627,23.257,47.908,25.565,44.905,25.825z"/>
		<path fill="#0028A0" d="M120.023,4.062c0-2.061-1.421-3.808-3.058-3.808c-1.54,0-1.901,1.03-1.901,1.635    c0,0.742,0.523,1.066,1.067,1.108c0.762,0.045,1.984,0.711,1.984,2.225c0,1.621-1.54,2.734-3.013,3.406    c-0.194,0.275-0.039,0.681,0.277,0.834C117.877,8.714,120.023,6.801,120.023,4.062z"/>
		<path fill="#0028A0" d="M126.781,16.937l-2.456-1.271c-1.589-0.833-2.646-1.708-2.646-3.122c0-1.354,0.865-2.712,3.204-2.712    c2.342,0,3.371,2.027,3.7,3.416c0.188,0.273,0.9,0.235,1.036-0.076c0.022-1.705-0.253-3.219-0.57-3.892    c-1.345-0.231-2.301-0.595-3.694-0.595c-3.995,0-6.234,2.021-6.234,4.921c0,2.225,1.638,3.771,3.543,4.758l1.778,0.918    c2.271,1.149,2.783,2.462,2.783,3.732c0,1.822-1.307,2.859-3.331,2.859c-2.661,0-4.4-2.818-4.725-4.251    c-0.28-0.361-0.873-0.32-1.03,0.088c0,2.098,0.473,3.528,0.833,4.08c0.553,0.392,2.147,1.229,4.559,1.229    c3.934,0,6.475-1.943,6.475-5.036C130.005,19.324,128.213,17.653,126.781,16.937z"/>
		<path fill="#0028A0" d="M90.54,10c-1.864-0.641-3.813-0.873-6.033-0.873c-3.208,0-5.437,0.078-7.661,0.232    c-0.353,0.118-0.396,0.875-0.041,0.995l1.188,0.157c0.918,0.116,0.953,0.793,0.953,3.373v8.42c0,2.732-0.157,2.888-1.863,3.167    l-0.758,0.117c-0.271,0.202-0.232,0.879,0.077,0.992c1.556-0.074,2.789-0.112,4.059-0.112c0.598,0,1.351,0.038,2.133,0.078    c0.84,0.083,1.761,0.12,2.632,0.12c1.98,0,4.2-0.309,5.99-1.235c3.181-1.623,4.802-4.521,4.802-7.653    C96.019,14.124,94.15,11.227,90.54,10z M85.389,25.512c-3.031,0-3.418-1.271-3.418-3.801v-9.454c0-0.88,0-1.386,0.229-1.551    c0.323-0.269,1.078-0.43,2.394-0.43c4.477,0,7.887,2.541,7.887,7.418C92.48,22.532,90.144,25.512,85.389,25.512z"/>
		<path fill="#0028A0" d="M113.063,9.127c-1.125,0.078-1.956,0.112-2.835,0.112c-0.904,0-1.813-0.035-3.002-0.112    c-0.401,0.153-0.44,0.791-0.088,0.984l0.837,0.122c0.961,0.12,0.874,0.473,0.278,1.585l-1.587,2.904    c-0.669,1.263-1.27,2.214-1.906,3.289c-0.592-1.033-1.19-2.104-1.78-3.289l-1.474-2.821c-0.641-1.237-0.51-1.463,0.355-1.667    l0.561-0.122c0.393-0.194,0.278-0.831-0.044-0.984c-1.268,0.078-2.176,0.112-3.371,0.112c-1.427,0-2.345-0.035-3.654-0.112    c-0.312,0.112-0.389,0.75-0.119,0.984l1.035,0.196c1.026,0.204,1.433,0.563,2.26,2.147l2.896,5.358    c0.999,1.823,1.11,2.142,1.11,3.378v1.497c0,2.349-0.156,2.588-1.862,2.783l-0.988,0.117c-0.285,0.202-0.247,0.879,0.078,0.992    c1.787-0.074,3.021-0.112,4.292-0.112c1.219,0,2.534,0.038,4.276,0.112c0.32-0.112,0.361-0.79,0.083-0.992l-0.994-0.117    c-1.704-0.194-1.87-0.435-1.87-2.783v-2.141c0-1.146,0.085-1.541,1.516-3.803l2.458-3.977c1.231-1.977,1.429-2.218,2.664-2.461    l0.948-0.196C113.459,9.917,113.373,9.24,113.063,9.127z"/>
		<path fill="#0028A0" d="M65.34,8.686c-5.751,0-9.797,4.052-9.797,9.326c0,5.003,3.646,9.007,9.797,9.007    c5.592,0,9.645-3.887,9.645-9.241C74.985,12.924,71.734,8.686,65.34,8.686z M66.22,25.825c-4.581,0.393-6.82-3.843-7.167-7.918    c-0.478-5.575,2.476-7.78,5.324-8.025c4.355-0.371,6.741,3.726,7.101,7.954C71.942,23.257,69.224,25.565,66.22,25.825z"/>
	</g>
	<g>
		<path fill="#0028A0" d="M4.629,36.134h1.46l4.702,11.926H8.755l-1.17-3.046H3.189L2.054,48.06H0.072L4.629,36.134z M7.008,43.465    l-0.973-2.702C5.71,39.79,5.53,39.25,5.404,38.853H5.368c-0.108,0.414-0.288,0.955-0.648,1.91l-0.973,2.702H7.008z"/>
		<path fill="#0028A0" d="M21.979,48.06l-5.333-7.026c-0.594-0.757-1.045-1.403-1.459-1.964H15.15    c0.036,0.522,0.055,1.137,0.055,1.909v7.081h-1.892V36.187h1.855l5.135,6.756c0.611,0.793,1.081,1.442,1.458,2.02h0.037    c-0.019-0.63-0.037-1.297-0.037-2.037v-6.737h1.892V48.06H21.979z"/>
		<path fill="#0028A0" d="M30.735,36.134h1.458l4.701,11.926h-2.035l-1.171-3.046h-4.396l-1.135,3.046h-1.982L30.735,36.134z     M33.113,43.465l-0.974-2.702c-0.325-0.974-0.504-1.514-0.63-1.91h-0.038c-0.108,0.414-0.288,0.955-0.647,1.91l-0.974,2.702    H33.113z"/>
		<path fill="#0028A0" d="M39.418,36.187h1.89v10.27h4.271v1.604h-6.159L39.418,36.187L39.418,36.187z"/>
		<path fill="#0028A0" d="M49.703,43.338l-3.999-7.151h2.07l2.901,5.44h0.036l2.829-5.44h2.054l-3.982,7.189v4.684h-1.91    L49.703,43.338L49.703,43.338z"/>
		<path fill="#0028A0" d="M60.351,37.791h-3.441v-1.604h9.099l-0.541,1.604h-3.224v10.27h-1.893V37.791z"/>
		<path fill="#0028A0" d="M68.368,36.187h1.891V48.06h-1.891V36.187z"/>
		<path fill="#0028A0" d="M83.031,47.338c-1.241,0.685-2.468,0.901-3.62,0.901c-3.767,0-5.893-2.504-5.893-5.981    c0-3.441,2.452-6.179,6.163-6.179c1.279,0,2.36,0.27,3.044,0.596v1.764c-0.882-0.469-1.837-0.757-3.009-0.757    c-2.666,0-4.181,2.054-4.181,4.521c0,2.612,1.567,4.434,4.09,4.434c1.152,0,2.054-0.324,2.883-0.794L83.031,47.338z"/>
		<path fill="#0028A0" d="M86.167,45.807c0.647,0.434,1.55,0.83,2.63,0.83c1.098,0,2.125-0.415,2.125-1.568    c0-2.505-5.168-2.196-5.168-5.781c0-1.749,1.367-3.207,3.747-3.207c1.17,0,2.179,0.27,2.791,0.596v1.71    c-0.881-0.45-1.801-0.703-2.738-0.703c-0.899,0-1.782,0.36-1.782,1.423c0,2.345,5.152,2.073,5.152,5.804    c0,2.07-1.712,3.332-4.09,3.332c-1.37,0-2.596-0.396-3.422-0.992L86.167,45.807z"/>
	</g>
</g>
</svg>