<svg width="38" height="37" viewBox="0 0 38 37" fill="none" xmlns="http://www.w3.org/2000/svg">
  <path
    d="M27.134 15.228L30.7052 11.1502H19.4234C16.3744 11.1502 15.6295 12.785 14.1319 15.228H21.8298L11.9866 26.4611C11.8663 26.5958 11.7306 26.7202 11.6154 26.842C8.30027 29.987 2.6888 27.658 2.6888 22.8886V13.2072C2.6888 11.5809 3.32721 10.0212 4.46358 8.87119C5.59995 7.72119 7.1412 7.07512 8.74827 7.07512H34.2764L37.8475 3H9.49322C7.24047 3 5.07999 3.90563 3.48706 5.51767C1.89412 7.1297 0.999218 9.31609 0.999218 11.5959V25.171C0.982478 26.4084 1.27388 27.6301 1.84655 28.7235C2.41921 29.8169 3.25471 30.7468 4.27599 31.4275C7.15596 33.3679 11.3031 33.2953 14.0346 30.1787L20.5011 22.7979L35.0136 33H37.8296L23.12 19.7876L27.134 15.228Z"
    fill="#181818" />
</svg>