<svg xmlns="http://www.w3.org/2000/svg" width="1322" height="358" fill="none">
  <g clip-path="url(#clip0_39_52)">
    <path
      d="M329.611 305.361c-18.93-1.968-18.558-12.523-19.761-32.601-3.27-58.197-3.675-132.81-4.466-175.608-.406-28.224 2.827-35.477 28.203-38.394l8.554-.771c2.05-1.638 2.05-8.477-.358-10.074-12.619.799-25.865 1.143-35.973 1.143-8.085 0-16.506 0-30.296-1.143-.819 18.564-12.068 40.79-30.639 77.449l-37.96 77.064c-10.053 20.629-20.175 41.669-31.067 60.551h-.792c-9.757-17.767-18.584-36.317-27.859-55.226l-46.025-93.259c-12.454-25.79-22.61-50.863-20.98-66.58-13.327 1.144-24.199 1.144-33.515 1.144-10.066 0-19.733-.344-31.858-1.143-3.26 1.597-3.66 7.652-1.595 10.074l6.404.77c24.62 4.073 27.944 9.29 27.05 34.734-.8 22.156-2.43 56.464-4.46 89.972-2.36 40.005-4.355 62.16-6.804 88.858-2.437 28.196-8.106 31.072-25.033 33.04l-8.876 1.197c-2.504 2.05-1.651 8.16.854 10.088a767.133 767.133 0 0141.091-1.143c15.33 0 31.1.385 44.82 1.143 2.828-1.143 3.255-7.638.448-10.088l-15.365-1.197c-15.784-1.169-18.137-7.637-18.137-37.513 0-34.267 1.582-70.279 2.8-94.844 1.26-23.421 2.457-46.857 4.004-71.875h.833c8.855 18.591 17.34 39.591 25.865 58.113l36.234 77.945c9.302 19.761 28.651 59.367 35.607 80.683.764 1.266 2.814 1.638 3.592 1.638 1.644 0 3.227-.372 3.977-1.638 7.314-18.55 25.521-56.421 43.616-92.008l35.918-70.637c8.091-15.674 23.367-47.986 26.229-52.417h.804l1.225 168.274c0 25.843 0 32.311-19.754 34.279l-11.628 1.197c-2.477 2.45-2.072 8.16.785 10.088 16.464-.758 34.664-1.143 48.741-1.143 14.554 0 31.136.385 47.719 1.143 2.766-1.583 3.172-7.638.798-10.088l-12.97-1.197zm118.072-170.682c-58.513 0-99.625 41.201-99.625 94.83 0 50.875 37.1 91.596 99.625 91.596 56.855 0 98.085-39.537 98.085-93.978 0-49.347-33.117-92.448-98.085-92.448zm8.938 174.274c-46.59 4.004-69.329-39.055-72.873-80.518-4.851-56.696 25.162-79.114 54.13-81.604 44.298-3.771 68.58 37.885 72.248 80.888 4.678 55.128-22.975 78.592-53.505 81.234zM1220.46 87.657c0-20.959-14.45-38.711-31.1-38.711-15.65 0-19.34 10.473-19.34 16.624 0 7.54 5.33 10.843 10.86 11.27 7.74.454 20.18 7.24 20.18 22.623 0 16.487-15.66 27.813-30.64 34.639-1.98 2.807-.4 6.921 2.84 8.476 25.37-7.61 47.2-27.069 47.2-54.921zm68.71 130.925l-24.98-12.922c-16.14-8.463-26.89-17.366-26.89-31.747 0-13.747 8.8-27.578 32.58-27.578 23.82 0 34.28 20.628 37.63 34.734 1.9 2.793 9.15 2.394 10.52-.771.25-17.339-2.56-32.739-5.8-39.578-13.66-2.353-23.38-6.041-37.57-6.041-40.6 0-63.39 20.546-63.39 50.037 0 22.609 16.65 38.339 36.02 48.371l18.11 9.344c23.07 11.696 28.3 25.031 28.3 37.953 0 18.524-13.3 29.078-33.88 29.078-27.06 0-44.75-28.651-48.04-43.224-2.85-3.674-8.88-3.261-10.48.88 0 21.331 4.81 35.876 8.48 41.49 5.63 3.978 21.84 12.497 46.36 12.497 39.98 0 65.81-19.762 65.81-51.207 0-27.054-18.21-44.036-32.78-51.316zm-368.509-70.541c-18.95-6.509-38.766-8.876-61.349-8.876-32.62 0-55.271.785-77.895 2.367-3.592 1.198-4.039 8.89-.427 10.115l12.09 1.597c9.337 1.182 9.708 8.063 9.708 34.292v85.623c0 27.785-1.604 29.367-18.956 32.203l-7.7 1.196c-2.766 2.05-2.367 8.945.785 10.088 15.812-.758 28.362-1.143 41.263-1.143 6.082 0 13.734.385 21.696.785 8.531.853 17.903 1.225 26.758 1.225 20.133 0 42.708-3.138 60.907-12.564 32.34-16.5 48.826-45.963 48.826-77.821 0-37.156-18.998-66.619-55.706-79.087zm-52.375 157.733c-30.819 0-34.761-12.936-34.761-38.656v-96.123c0-8.944 0-14.092 2.318-15.77 3.296-2.725 10.974-4.363 24.344-4.363 45.522 0 80.209 25.83 80.209 75.44 0 49.17-23.768 79.472-72.11 79.472zM1149.7 139.165c-11.44.785-19.9 1.142-28.83 1.142-9.21 0-18.46-.357-30.54-1.142-4.08 1.555-4.48 8.036-.88 10.019l8.51 1.238c9.77 1.225 8.89 4.803 2.83 16.114l-16.13 29.532c-6.82 12.84-12.92 22.514-19.39 33.441-6.03-10.501-12.11-21.414-18.1-33.441l-14.98-28.692c-6.53-12.592-5.19-14.876 3.62-16.953l5.68-1.239c4-1.983 2.84-8.464-.44-10.019-12.89.785-22.14 1.143-34.28 1.143-14.516 0-23.853-.358-37.16-1.143-3.165 1.143-3.964 7.623-1.217 10.019l10.521 1.995c10.444 2.065 14.565 5.724 22.986 21.825l29.44 54.496c10.15 18.536 11.29 21.77 11.29 34.348v15.22c0 23.876-1.58 26.325-18.93 28.294l-10.05 1.196c-2.89 2.05-2.5 8.945.79 10.088 18.17-.758 30.71-1.143 43.65-1.143 12.4 0 25.76.385 43.47 1.143 3.28-1.143 3.69-8.038.85-10.088l-10.1-1.196c-17.33-1.969-19.02-4.418-19.02-28.294v-21.771c0-11.655.87-15.674 15.42-38.669l24.99-40.43c12.52-20.106 14.52-22.556 27.08-25.019l9.65-1.995c3.29-1.983 2.41-8.876-.73-10.019zm-485.282-4.486c-58.486 0-99.625 41.201-99.625 94.83 0 50.875 37.093 91.596 99.625 91.596 56.861 0 98.076-39.537 98.076-93.978 0-49.347-33.067-92.448-98.076-92.448zm8.944 174.274c-46.581 4.004-69.344-39.055-72.872-80.518-4.859-56.696 25.169-79.114 54.137-81.604 44.29-3.771 68.537 37.885 72.213 80.888 4.706 55.128-22.934 78.592-53.478 81.234z"
      fill="#273A92" />
  </g>
  <defs>
    <clipPath id="clip0_39_52">
      <path fill="#fff" d="M0 0h1920v358H0z" />
    </clipPath>
  </defs>
  <script xmlns="" type="text/javascript"
    src="chrome-extension://jccapkebeeiajkkdemacblkjhhhboiek/js/inPageScript.bundle.js" />
</svg>