<svg xmlns="http://www.w3.org/2000/svg" xmlns:xlink="http://www.w3.org/1999/xlink" width="119px"
  height="38px" viewBox="0 0 118.35 37.41">
  <defs>
    <linearGradient id="a" x1="-127.78" y1="205.05" x2="-128.84" y2="204.77"
      gradientTransform="matrix(12.33, 0, 0, -12.61, 1694.89, 2591.23)"
      gradientUnits="userSpaceOnUse">
      <stop offset="0" stop-color="#44b84a" />
      <stop offset="0.15" stop-color="#86c848" />
      <stop offset="0.66" stop-color="#44b84a" />
      <stop offset="1" stop-color="#2b9944" />
    </linearGradient>
  </defs>
  <title>Layer 1</title>
  <path
    d="M18.43,28a3.33,3.33,0,0,0-1.27-2.78,15.57,15.57,0,0,0-4.42-2.06,41.67,41.67,0,0,1-5.18-2.05Q1,17.89,1,12.27A7.9,7.9,0,0,1,2.64,7.35,10.36,10.36,0,0,1,7.26,4,17.86,17.86,0,0,1,14,2.81a15.63,15.63,0,0,1,6.49,1.3A10.24,10.24,0,0,1,25,7.81a9.62,9.62,0,0,1,1.6,5.46h-8.1a4,4,0,0,0-1.27-3.19,4.84,4.84,0,0,0-3.4-1.14,5.56,5.56,0,0,0-3.44,1,2.93,2.93,0,0,0-1.25,2.43,3,3,0,0,0,1.39,2.36,17.88,17.88,0,0,0,4.87,2.17,29.77,29.77,0,0,1,5.74,2.41q5.46,3.15,5.46,8.67a8.22,8.22,0,0,1-3.33,6.94q-3.33,2.52-9.14,2.52A18.33,18.33,0,0,1,6.66,36a11.36,11.36,0,0,1-5-4A10.6,10.6,0,0,1,0,26H8.14a5.19,5.19,0,0,0,1.39,4c.94.85,2.46,1.27,4.55,1.27a5.23,5.23,0,0,0,3.17-.85A2.87,2.87,0,0,0,18.43,28ZM30.2,11.93h7.31l.25,2.93a8.51,8.51,0,0,1,7.15-3.4c2.6,0,4.55.78,5.83,2.34s2,3.9,2,7V37H44.93V21.15a4.15,4.15,0,0,0-.76-2.77,3.52,3.52,0,0,0-2.78-.9,3.73,3.73,0,0,0-3.4,1.8V37H30.2Zm35.08,0V37H57.47v-25ZM57,5.47a3.45,3.45,0,0,1,1.2-2.72,5.1,5.1,0,0,1,6.25,0,3.45,3.45,0,0,1,1.2,2.72,3.49,3.49,0,0,1-1.2,2.73,5.1,5.1,0,0,1-6.25,0A3.49,3.49,0,0,1,57,5.47ZM79.62,37H71.8V17.34H68.17V11.93H71.8v-2A8.65,8.65,0,0,1,74.32,3.3,10,10,0,0,1,81.4.94a15.13,15.13,0,0,1,3.65.49l0,5.73A7.08,7.08,0,0,0,83.16,7Q79.62,7,79.62,10v1.92H84.5v5.41H79.62Z"
    fill="#0b52a0" />
  <path
    d="M91.64.39h0c-2,.82-2.83,2.67-1.86,4.11L110.37,35c1,1.44,3.4,2,5.39,1.13h0c2-.82,2.83-2.67,1.86-4.11L97,1.52C96.06.08,93.63-.43,91.64.39Zm4.08,17.88L84.88,33.15c-.69,1.05.39,2.57,2.4,3.37h0c2,.79,4.22.58,4.9-.48l7.74-12Z"
    fill="#44b84a" />
  <path
    d="M106.6,12.46s4.09-6.53,7.07-7c0,0-5.21,5.16-4.91,7.41,0,0,11-1.36,9.44-12.62C118.2.29,102.88.6,106.6,12.46Z"
    fill="url(#a)" />
</svg>