<?xml version="1.0" standalone="no"?>
<!DOCTYPE svg PUBLIC "-//W3C//DTD SVG 20010904//EN"
 "http://www.w3.org/TR/2001/REC-SVG-20010904/DTD/svg10.dtd">
<svg version="1.0" xmlns="http://www.w3.org/2000/svg"
 width="1014.000000pt" height="1014.000000pt" viewBox="0 0 1014.000000 1014.000000"
 preserveAspectRatio="xMidYMid meet">
<metadata>
Created by potrace 1.14, written by Peter Selinger 2001-2017
</metadata>
<g transform="translate(0.000000,1014.000000) scale(0.100000,-0.100000)"
fill="#000000" stroke="none">
<path d="M4380 8159 c-108 -9 -267 -31 -355 -50 -117 -25 -301 -72 -309 -80
-6 -5 -1 -27 12 -56 12 -27 37 -91 56 -143 59 -161 97 -264 111 -295 7 -16 25
-64 39 -105 15 -41 32 -85 37 -98 5 -13 25 -67 44 -120 20 -53 53 -137 75
-187 39 -90 62 -148 120 -305 67 -179 99 -263 124 -325 14 -36 90 -238 181
-480 18 -49 68 -180 110 -290 42 -110 79 -208 82 -217 5 -17 18 -21 98 -33
l40 -6 57 113 c32 62 85 165 119 228 33 63 139 270 236 460 183 359 263 514
305 590 113 205 158 292 251 476 58 116 118 233 133 260 14 27 62 117 105 201
l80 152 -23 15 c-32 20 -241 101 -367 143 -231 76 -509 131 -766 153 -140 11
-444 11 -595 -1z"/>
<path d="M3450 7943 c-19 -9 -48 -22 -65 -29 -338 -140 -687 -356 -930 -574
-28 -25 -79 -70 -114 -100 -69 -60 -237 -245 -344 -379 -67 -83 -208 -290
-261 -381 -50 -87 -146 -280 -146 -293 0 -9 162 -78 448 -192 246 -98 478
-191 516 -206 37 -16 74 -29 81 -29 11 0 43 -12 130 -50 11 -5 52 -20 90 -35
74 -28 156 -60 190 -75 11 -5 130 -52 265 -105 135 -54 259 -103 275 -110 17
-7 48 -19 70 -28 22 -8 78 -31 125 -50 47 -19 161 -65 254 -102 l169 -67 59
59 58 59 -15 49 c-9 28 -20 64 -24 80 -5 17 -23 77 -40 135 -17 58 -74 251
-127 430 -53 179 -114 386 -136 460 -22 74 -44 149 -48 165 -5 17 -22 77 -40
135 -17 58 -37 132 -45 165 -14 60 -21 89 -68 245 -14 47 -49 164 -77 260 -28
96 -69 236 -91 310 -22 74 -48 164 -58 200 -15 56 -20 65 -42 67 -13 1 -40 -5
-59 -14z"/>
<path d="M6191 7768 c-11 -24 -43 -99 -72 -168 -79 -191 -134 -320 -157 -372
-12 -26 -22 -49 -22 -52 0 -3 -17 -45 -39 -93 -41 -95 -100 -240 -149 -368
-17 -44 -43 -107 -57 -140 -15 -33 -33 -76 -42 -95 -8 -19 -25 -60 -38 -90
-13 -30 -54 -127 -91 -215 -36 -88 -74 -178 -84 -200 -10 -22 -28 -65 -40 -95
-12 -30 -30 -73 -40 -95 -10 -22 -46 -107 -81 -190 -34 -82 -83 -199 -110
-260 -43 -101 -46 -112 -31 -127 25 -30 -66 -56 932 272 311 103 599 196 640
209 164 48 247 73 280 86 19 7 216 72 437 144 221 73 405 136 409 142 8 13 -6
47 -88 212 -88 179 -172 315 -314 516 -132 186 -412 477 -614 637 -119 94
-396 284 -414 284 -2 0 -31 16 -63 35 -32 19 -75 41 -95 50 l-38 15 -19 -42z"/>
<path d="M1534 6073 c-24 -55 -85 -224 -118 -328 -25 -80 -73 -282 -91 -385
-9 -52 -20 -119 -25 -147 -5 -29 -15 -143 -21 -253 -17 -295 3 -600 57 -870
40 -198 101 -409 120 -417 8 -3 62 14 122 37 59 23 170 67 247 97 77 30 154
61 170 68 17 7 80 32 140 55 61 23 128 50 150 60 22 9 58 23 80 30 22 7 60 23
85 35 48 24 324 136 695 280 66 26 134 53 150 60 17 7 91 36 165 65 74 29 212
83 305 120 94 38 203 81 243 96 l72 28 0 47 c0 25 -6 51 -12 56 -14 11 -86 49
-408 218 -107 56 -231 121 -275 145 -88 47 -383 202 -595 313 -74 39 -173 93
-220 120 -92 53 -165 92 -395 212 -82 43 -184 96 -225 118 -189 102 -373 197
-381 197 -5 0 -21 -26 -35 -57z"/>
<path d="M7790 5879 c-99 -41 -361 -148 -440 -179 -98 -39 -388 -159 -445
-185 -85 -39 -253 -109 -370 -156 -101 -40 -225 -91 -280 -114 -16 -8 -77 -32
-135 -55 -58 -23 -114 -46 -125 -50 -46 -20 -319 -132 -440 -180 -71 -29 -148
-60 -170 -70 -22 -9 -47 -20 -56 -23 -13 -4 -16 -15 -12 -54 2 -26 6 -54 8
-60 2 -7 345 -184 762 -394 417 -209 983 -495 1258 -634 380 -192 503 -251
511 -242 25 25 135 374 168 527 61 291 71 391 71 745 0 355 -10 459 -71 745
-37 173 -115 420 -131 420 -5 0 -51 -19 -103 -41z"/>
<path d="M4095 4369 c-200 -62 -362 -113 -405 -125 -25 -7 -106 -32 -180 -55
-74 -23 -155 -47 -180 -55 -52 -15 -282 -85 -455 -139 -172 -54 -244 -75 -295
-87 -25 -5 -108 -29 -185 -53 -150 -47 -391 -120 -465 -141 -25 -7 -58 -17
-75 -23 -16 -6 -91 -29 -165 -51 -74 -23 -150 -46 -169 -52 -30 -9 -32 -13
-27 -39 15 -75 164 -387 264 -554 215 -356 565 -744 877 -972 65 -47 314 -213
320 -213 4 0 19 -8 33 -19 35 -25 294 -154 362 -181 62 -25 60 -26 91 75 23
74 50 154 154 455 100 289 160 469 182 545 11 39 58 176 103 305 45 129 115
332 155 450 41 118 85 247 99 285 14 39 62 177 107 309 l81 238 -63 64 c-35
35 -66 63 -69 63 -3 -1 -45 -14 -95 -30z"/>
<path d="M5152 4340 l-33 -40 227 -678 c125 -372 247 -738 271 -812 129 -400
388 -1177 395 -1187 12 -16 52 -1 206 76 228 114 486 285 688 456 76 64 326
314 384 384 196 237 329 439 455 691 88 175 91 185 57 199 -90 34 -169 64
-257 95 -55 20 -122 45 -150 55 -27 11 -102 38 -165 61 -63 23 -167 61 -230
85 -63 24 -137 51 -165 59 -106 33 -173 56 -250 86 -44 17 -111 42 -150 55
-38 13 -106 38 -150 55 -44 17 -116 44 -160 59 -44 16 -111 41 -150 56 -38 14
-106 39 -150 54 -44 16 -111 41 -150 55 -38 15 -101 38 -140 52 -38 13 -79 28
-90 33 -11 6 -40 17 -65 25 -25 9 -76 27 -113 41 -37 14 -71 25 -75 25 -4 0
-22 -18 -40 -40z"/>
<path d="M4634 4138 c-5 -7 -17 -29 -25 -48 -9 -19 -53 -111 -97 -205 -44 -93
-97 -206 -117 -250 -20 -44 -72 -154 -115 -245 -125 -263 -249 -528 -292 -620
-22 -47 -81 -168 -132 -270 -51 -102 -112 -228 -135 -280 -61 -133 -227 -481
-267 -558 -18 -36 -30 -70 -28 -76 7 -19 246 -99 453 -151 109 -28 261 -56
416 -77 135 -18 667 -18 790 0 127 19 313 51 360 63 22 6 56 15 75 19 74 19
188 52 263 77 64 22 77 30 77 48 0 11 -4 25 -8 31 -4 5 -23 45 -41 89 -34 81
-112 266 -136 320 -8 17 -61 143 -120 280 -58 138 -124 288 -147 335 -22 47
-44 94 -48 105 -54 128 -101 240 -180 420 -9 22 -61 144 -115 270 -217 512
-272 641 -295 693 -20 42 -20 42 -74 42 -31 0 -57 -5 -62 -12z"/>
</g>
</svg>
