<svg xmlns="http://www.w3.org/2000/svg" xmlns:xlink="http://www.w3.org/1999/xlink"
  viewBox="0 0 65 21" fill="#fff" fill-rule="evenodd" stroke="#000" stroke-linecap="round"
  stroke-linejoin="round">
  <style><![CDATA[.B{fill-rule:nonzero}.C{stroke-width:.225}.D{stroke-width:.096}]]></style>
  <use xlink:href="#Ab" x=".5" y=".5" />
  <defs>
    <linearGradient id="A" y2="108.04%" x2="51.50%" y1="-14.26%" x1="48.45%">
      <stop offset="0%" stop-color="#693594" />
      <stop offset="10.6%" stop-color="#892e83" />
      <stop offset="26.5%" stop-color="#b4246c" />
      <stop offset="40.9%" stop-color="#d31d5c" />
      <stop offset="53.1%" stop-color="#e61952" />
      <stop offset="61.6%" stop-color="#ed174e" />
      <stop offset="100%" stop-color="#f9e57e" />
    </linearGradient>
    <linearGradient id="B" y2="134.96%" x2="52.00%" y1="25.26%" x1="49.42%">
      <stop offset="0%" stop-color="#693594" />
      <stop offset="10.6%" stop-color="#892e83" />
      <stop offset="26.5%" stop-color="#b4246c" />
      <stop offset="40.9%" stop-color="#d31d5c" />
      <stop offset="53.1%" stop-color="#e61952" />
      <stop offset="61.6%" stop-color="#ed174e" />
      <stop offset="100%" stop-color="#f9e57e" />
    </linearGradient>
    <linearGradient id="C" y2="108.62%" x2="51.69%" y1="-15.75%" x1="48.25%">
      <stop offset="0%" stop-color="#693594" />
      <stop offset="10.6%" stop-color="#892e83" />
      <stop offset="26.5%" stop-color="#b4246c" />
      <stop offset="40.9%" stop-color="#d31d5c" />
      <stop offset="53.1%" stop-color="#e61952" />
      <stop offset="61.6%" stop-color="#ed174e" />
      <stop offset="100%" stop-color="#f9e57e" />
    </linearGradient>
    <linearGradient id="D" y2="133.74%" x2="52.74%" y1="14.51%" x1="49.03%">
      <stop offset="0%" stop-color="#693594" />
      <stop offset="10.6%" stop-color="#892e83" />
      <stop offset="26.5%" stop-color="#b4246c" />
      <stop offset="40.9%" stop-color="#d31d5c" />
      <stop offset="53.1%" stop-color="#e61952" />
      <stop offset="61.6%" stop-color="#ed174e" />
      <stop offset="100%" stop-color="#f9e57e" />
    </linearGradient>
    <linearGradient id="E" y2="108.61%" x2="51.60%" y1="-16.91%" x1="48.43%">
      <stop offset="0%" stop-color="#693594" />
      <stop offset="10.6%" stop-color="#892e83" />
      <stop offset="26.5%" stop-color="#b4246c" />
      <stop offset="40.9%" stop-color="#d31d5c" />
      <stop offset="53.1%" stop-color="#e61952" />
      <stop offset="61.6%" stop-color="#ed174e" />
      <stop offset="100%" stop-color="#f9e57e" />
    </linearGradient>
    <linearGradient id="F" y2="155.15%" x2="52.28%" y1="5.14%" x1="49.10%">
      <stop offset="0%" stop-color="#693594" />
      <stop offset="10.6%" stop-color="#892e83" />
      <stop offset="26.5%" stop-color="#b4246c" />
      <stop offset="40.9%" stop-color="#d31d5c" />
      <stop offset="53.1%" stop-color="#e61952" />
      <stop offset="61.6%" stop-color="#ed174e" />
      <stop offset="100%" stop-color="#f9e57e" />
    </linearGradient>
    <linearGradient id="G" y2="111.21%" x2="51.43%" y1="-20.50%" x1="48.60%">
      <stop offset="0%" stop-color="#693594" />
      <stop offset="10.6%" stop-color="#892e83" />
      <stop offset="26.5%" stop-color="#b4246c" />
      <stop offset="40.9%" stop-color="#d31d5c" />
      <stop offset="53.1%" stop-color="#e61952" />
      <stop offset="61.6%" stop-color="#ed174e" />
      <stop offset="100%" stop-color="#f9e57e" />
    </linearGradient>
    <linearGradient id="H" y2="139.45%" x2="51.87%" y1="-8.51%" x1="48.80%">
      <stop offset="0%" stop-color="#693594" />
      <stop offset="10.6%" stop-color="#892e83" />
      <stop offset="26.5%" stop-color="#b4246c" />
      <stop offset="40.9%" stop-color="#d31d5c" />
      <stop offset="53.1%" stop-color="#e61952" />
      <stop offset="61.6%" stop-color="#ed174e" />
      <stop offset="100%" stop-color="#f9e57e" />
    </linearGradient>
    <linearGradient id="I" y2="35.75%" x2="49.86%" y1="-40.57%" x1="48.99%">
      <stop offset="0%" stop-color="#f9e57e" />
      <stop offset="10.6%" stop-color="#f7db7d" />
      <stop offset="34.9%" stop-color="#f3c87a" />
      <stop offset="52%" stop-color="#f2c179" />
      <stop offset="71%" stop-color="#f5d17b" />
      <stop offset="100%" stop-color="#f9e57e" />
    </linearGradient>
    <linearGradient id="J" y2="83.71%" x2="47.13%" y1="-95.93%" x1="61.22%">
      <stop offset="0%" stop-color="#f9e57e" />
      <stop offset="10.6%" stop-color="#f7db7d" />
      <stop offset="34.9%" stop-color="#f3c87a" />
      <stop offset="52%" stop-color="#f2c179" />
      <stop offset="71%" stop-color="#f5d17b" />
      <stop offset="100%" stop-color="#f9e57e" />
    </linearGradient>
    <linearGradient id="K" y2="31.81%" x2="50.18%" y1="-61.41%" x1="49.11%">
      <stop offset="0%" stop-color="#f9e57e" />
      <stop offset="10.6%" stop-color="#f7db7d" />
      <stop offset="34.9%" stop-color="#f3c87a" />
      <stop offset="52%" stop-color="#f2c179" />
      <stop offset="71%" stop-color="#f5d17b" />
      <stop offset="100%" stop-color="#f9e57e" />
    </linearGradient>
    <linearGradient id="L" y2="132.32%" x2="44.02%" y1="-133.30%" x1="61.93%">
      <stop offset="0%" stop-color="#f9e57e" />
      <stop offset="10.6%" stop-color="#f7db7d" />
      <stop offset="34.9%" stop-color="#f3c87a" />
      <stop offset="52%" stop-color="#f2c179" />
      <stop offset="71%" stop-color="#f5d17b" />
      <stop offset="100%" stop-color="#f9e57e" />
    </linearGradient>
    <linearGradient id="M" y2="28.44%" x2="49.83%" y1="-128.12%" x1="48.21%">
      <stop offset="0%" stop-color="#f9e57e" />
      <stop offset="10.6%" stop-color="#f7db7d" />
      <stop offset="34.9%" stop-color="#f3c87a" />
      <stop offset="52%" stop-color="#f2c179" />
      <stop offset="71%" stop-color="#f5d17b" />
      <stop offset="100%" stop-color="#f9e57e" />
    </linearGradient>
    <linearGradient id="N" y2="25.64%" x2="50.07%" y1="-164.14%" x1="48.10%">
      <stop offset="0%" stop-color="#f9e57e" />
      <stop offset="10.6%" stop-color="#f7db7d" />
      <stop offset="34.9%" stop-color="#f3c87a" />
      <stop offset="52%" stop-color="#f2c179" />
      <stop offset="71%" stop-color="#f5d17b" />
      <stop offset="100%" stop-color="#f9e57e" />
    </linearGradient>
    <linearGradient id="O" y2="150.76%" x2="51.56%" y1="-95.48%" x1="49.67%">
      <stop offset="0%" stop-color="#f9e57e" />
      <stop offset="10.6%" stop-color="#f7db7d" />
      <stop offset="34.9%" stop-color="#f3c87a" />
      <stop offset="52%" stop-color="#f2c179" />
      <stop offset="71%" stop-color="#f5d17b" />
      <stop offset="100%" stop-color="#f9e57e" />
    </linearGradient>
    <linearGradient id="P" y2="93.33%" x2="50.33%" y1="-265.27%" x1="47.37%">
      <stop offset="0%" stop-color="#f9e57e" />
      <stop offset="10.6%" stop-color="#f7db7d" />
      <stop offset="34.9%" stop-color="#f3c87a" />
      <stop offset="52%" stop-color="#f2c179" />
      <stop offset="71%" stop-color="#f5d17b" />
      <stop offset="100%" stop-color="#f9e57e" />
    </linearGradient>
    <linearGradient id="Q" y2="-33.64%" x2="63.27%" y1="136.75%" x1="36.73%">
      <stop offset="0%" stop-color="#693594" />
      <stop offset="10.6%" stop-color="#892e83" />
      <stop offset="26.5%" stop-color="#b4246c" />
      <stop offset="40.9%" stop-color="#d31d5c" />
      <stop offset="53.1%" stop-color="#e61952" />
      <stop offset="61.6%" stop-color="#ed174e" />
      <stop offset="100%" stop-color="#f9e57e" />
    </linearGradient>
    <linearGradient id="R" y2="-93.02%" x2="111.12%" y1="47.81%" x1="51.22%">
      <stop offset="0%" stop-color="#693594" />
      <stop offset="10.6%" stop-color="#892e83" />
      <stop offset="26.5%" stop-color="#b4246c" />
      <stop offset="40.9%" stop-color="#d31d5c" />
      <stop offset="53.1%" stop-color="#e61952" />
      <stop offset="61.6%" stop-color="#ed174e" />
      <stop offset="100%" stop-color="#f9e57e" />
    </linearGradient>
    <linearGradient id="S" y2="-25.99%" x2="66.38%" y1="154.69%" x1="28.86%">
      <stop offset="0%" stop-color="#693594" />
      <stop offset="10.6%" stop-color="#892e83" />
      <stop offset="26.5%" stop-color="#b4246c" />
      <stop offset="40.9%" stop-color="#d31d5c" />
      <stop offset="53.1%" stop-color="#e61952" />
      <stop offset="61.6%" stop-color="#ed174e" />
      <stop offset="100%" stop-color="#f9e57e" />
    </linearGradient>
    <linearGradient id="T" y2="-60.75%" x2="98.59%" y1="88.88%" x1="39.43%">
      <stop offset="0%" stop-color="#693594" />
      <stop offset="10.6%" stop-color="#892e83" />
      <stop offset="26.5%" stop-color="#b4246c" />
      <stop offset="40.9%" stop-color="#d31d5c" />
      <stop offset="53.1%" stop-color="#e61952" />
      <stop offset="61.6%" stop-color="#ed174e" />
      <stop offset="100%" stop-color="#f9e57e" />
    </linearGradient>
    <linearGradient id="U" y2="-44.84%" x2="63.24%" y1="198.53%" x1="30.12%">
      <stop offset="0%" stop-color="#693594" />
      <stop offset="10.6%" stop-color="#892e83" />
      <stop offset="26.5%" stop-color="#b4246c" />
      <stop offset="40.9%" stop-color="#d31d5c" />
      <stop offset="53.1%" stop-color="#e61952" />
      <stop offset="61.6%" stop-color="#ed174e" />
      <stop offset="100%" stop-color="#f9e57e" />
    </linearGradient>
    <linearGradient id="V" y2="-60.89%" x2="82.77%" y1="145.12%" x1="23.27%">
      <stop offset="0%" stop-color="#693594" />
      <stop offset="10.6%" stop-color="#892e83" />
      <stop offset="26.5%" stop-color="#b4246c" />
      <stop offset="40.9%" stop-color="#d31d5c" />
      <stop offset="53.1%" stop-color="#e61952" />
      <stop offset="61.6%" stop-color="#ed174e" />
      <stop offset="100%" stop-color="#f9e57e" />
    </linearGradient>
    <linearGradient id="W" y2="-20.88%" x2="59.78%" y1="227.24%" x1="27.85%">
      <stop offset="0%" stop-color="#693594" />
      <stop offset="10.6%" stop-color="#892e83" />
      <stop offset="26.5%" stop-color="#b4246c" />
      <stop offset="40.9%" stop-color="#d31d5c" />
      <stop offset="53.1%" stop-color="#e61952" />
      <stop offset="61.6%" stop-color="#ed174e" />
      <stop offset="100%" stop-color="#f9e57e" />
    </linearGradient>
    <linearGradient id="X" y2="155.36%" x2="50.98%" y1="55.22%" x1="50.08%">
      <stop offset="0%" stop-color="#f9e57e" />
      <stop offset="10.6%" stop-color="#f7db7d" />
      <stop offset="34.9%" stop-color="#f3c87a" />
      <stop offset="52%" stop-color="#f2c179" />
      <stop offset="71%" stop-color="#f5d17b" />
      <stop offset="100%" stop-color="#f9e57e" />
    </linearGradient>
    <linearGradient id="Y" y2="205.20%" x2="40.94%" y1="4.28%" x1="52.86%">
      <stop offset="0%" stop-color="#f9e57e" />
      <stop offset="10.6%" stop-color="#f7db7d" />
      <stop offset="34.9%" stop-color="#f3c87a" />
      <stop offset="52%" stop-color="#f2c179" />
      <stop offset="71%" stop-color="#f5d17b" />
      <stop offset="100%" stop-color="#f9e57e" />
    </linearGradient>
    <linearGradient id="Z" y2="224.31%" x2="39.98%" y1="-12.92%" x1="54.65%">
      <stop offset="0%" stop-color="#f9e57e" />
      <stop offset="10.6%" stop-color="#f7db7d" />
      <stop offset="34.9%" stop-color="#f3c87a" />
      <stop offset="52%" stop-color="#f2c179" />
      <stop offset="71%" stop-color="#f5d17b" />
      <stop offset="100%" stop-color="#f9e57e" />
    </linearGradient>
    <linearGradient id="a" y2="342.96%" x2="36.11%" y1="-111.13%" x1="58.48%">
      <stop offset="0%" stop-color="#f9e57e" />
      <stop offset="10.6%" stop-color="#f7db7d" />
      <stop offset="34.9%" stop-color="#f3c87a" />
      <stop offset="52%" stop-color="#f2c179" />
      <stop offset="71%" stop-color="#f5d17b" />
      <stop offset="100%" stop-color="#f9e57e" />
    </linearGradient>
    <linearGradient id="b" y2="137.13%" x2="50.82%" y1="-112.96%" x1="48.95%">
      <stop offset="0%" stop-color="#f9e57e" />
      <stop offset="10.6%" stop-color="#f7db7d" />
      <stop offset="34.9%" stop-color="#f3c87a" />
      <stop offset="52%" stop-color="#f2c179" />
      <stop offset="71%" stop-color="#f5d17b" />
      <stop offset="100%" stop-color="#f9e57e" />
    </linearGradient>
    <linearGradient id="c" y2="146.43%" x2="50.73%" y1="2.85%" x1="49.58%">
      <stop offset="0%" stop-color="#f9e57e" />
      <stop offset="10.6%" stop-color="#f7db7d" />
      <stop offset="34.9%" stop-color="#f3c87a" />
      <stop offset="52%" stop-color="#f2c179" />
      <stop offset="71%" stop-color="#f5d17b" />
      <stop offset="100%" stop-color="#f9e57e" />
    </linearGradient>
    <linearGradient id="d" y2="121.28%" x2="1.45%" y1="8.52%" x1="105.74%">
      <stop offset="0%" stop-color="#7e3895" />
      <stop offset="7.1%" stop-color="#9b2f82" />
      <stop offset="16%" stop-color="#b9266f" />
      <stop offset="25.4%" stop-color="#d02061" />
      <stop offset="35.5%" stop-color="#e01b56" />
      <stop offset="46.8%" stop-color="#ea1850" />
      <stop offset="61.6%" stop-color="#ed174e" />
      <stop offset="100%" stop-color="#f9e57e" />
    </linearGradient>
    <linearGradient id="e" y2="104.73%" x2="10.31%" y1="11.09%" x1="99.00%">
      <stop offset="0%" stop-color="#7e3895" />
      <stop offset="7.1%" stop-color="#9b2f82" />
      <stop offset="16%" stop-color="#b9266f" />
      <stop offset="25.4%" stop-color="#d02061" />
      <stop offset="35.5%" stop-color="#e01b56" />
      <stop offset="46.8%" stop-color="#ea1850" />
      <stop offset="61.6%" stop-color="#ed174e" />
      <stop offset="100%" stop-color="#f9e57e" />
    </linearGradient>
    <linearGradient id="f" y2="100.17%" x2="12.99%" y1="12.61%" x1="87.22%">
      <stop offset="0%" stop-color="#7e3895" />
      <stop offset="7.1%" stop-color="#9b2f82" />
      <stop offset="16%" stop-color="#b9266f" />
      <stop offset="25.4%" stop-color="#d02061" />
      <stop offset="35.5%" stop-color="#e01b56" />
      <stop offset="46.8%" stop-color="#ea1850" />
      <stop offset="61.6%" stop-color="#ed174e" />
      <stop offset="100%" stop-color="#f9e57e" />
    </linearGradient>
    <linearGradient id="g" y2="97.00%" x2="21.40%" y1="14.10%" x1="80.03%">
      <stop offset="0%" stop-color="#7e3895" />
      <stop offset="7.1%" stop-color="#9b2f82" />
      <stop offset="16%" stop-color="#b9266f" />
      <stop offset="25.4%" stop-color="#d02061" />
      <stop offset="35.5%" stop-color="#e01b56" />
      <stop offset="46.8%" stop-color="#ea1850" />
      <stop offset="61.6%" stop-color="#ed174e" />
      <stop offset="100%" stop-color="#f9e57e" />
    </linearGradient>
    <linearGradient id="h" y2="99.77%" x2="25.96%" y1="-5.11%" x1="76.15%">
      <stop offset="0%" stop-color="#7e3895" />
      <stop offset="9.6%" stop-color="#863893" />
      <stop offset="24.7%" stop-color="#9d398f" />
      <stop offset="43.3%" stop-color="#c13a88" />
      <stop offset="61.6%" stop-color="#ec3c80" />
      <stop offset="100%" stop-color="#f9e57e" />
    </linearGradient>
    <linearGradient id="i" y2="97.23%" x2="35.20%" y1="35.25%" x1="54.70%">
      <stop offset="0%" stop-color="#7e3895" />
      <stop offset="7.1%" stop-color="#9b2f82" />
      <stop offset="16%" stop-color="#b9266f" />
      <stop offset="25.4%" stop-color="#d02061" />
      <stop offset="35.5%" stop-color="#e01b56" />
      <stop offset="46.8%" stop-color="#ea1850" />
      <stop offset="61.6%" stop-color="#ed174e" />
      <stop offset="100%" stop-color="#f9e57e" />
    </linearGradient>
    <linearGradient id="j" y2="90.06%" x2="41.91%" y1="31.59%" x1="56.12%">
      <stop offset="0%" stop-color="#7e3895" />
      <stop offset="7.1%" stop-color="#9b2f82" />
      <stop offset="16%" stop-color="#b9266f" />
      <stop offset="25.4%" stop-color="#d02061" />
      <stop offset="35.5%" stop-color="#e01b56" />
      <stop offset="46.8%" stop-color="#ea1850" />
      <stop offset="61.6%" stop-color="#ed174e" />
      <stop offset="100%" stop-color="#f9e57e" />
    </linearGradient>
    <linearGradient id="k" y2="154.57%" x2="32.01%" y1="22.62%" x1="54.60%">
      <stop offset="0%" stop-color="#7e3895" />
      <stop offset="7.1%" stop-color="#9b2f82" />
      <stop offset="16%" stop-color="#b9266f" />
      <stop offset="25.4%" stop-color="#d02061" />
      <stop offset="35.5%" stop-color="#e01b56" />
      <stop offset="46.8%" stop-color="#ea1850" />
      <stop offset="61.6%" stop-color="#ed174e" />
      <stop offset="100%" stop-color="#f9e57e" />
    </linearGradient>
    <linearGradient id="l" y2="88.57%" x2="40.31%" y1="25.10%" x1="55.90%">
      <stop offset="0%" stop-color="#7e3895" />
      <stop offset="7.1%" stop-color="#9b2f82" />
      <stop offset="16%" stop-color="#b9266f" />
      <stop offset="25.4%" stop-color="#d02061" />
      <stop offset="35.5%" stop-color="#e01b56" />
      <stop offset="46.8%" stop-color="#ea1850" />
      <stop offset="61.6%" stop-color="#ed174e" />
      <stop offset="100%" stop-color="#f9e57e" />
    </linearGradient>
    <linearGradient id="m" y2="155.35%" x2="33.37%" y1="12.64%" x1="55.99%">
      <stop offset="0%" stop-color="#7e3895" />
      <stop offset="7.1%" stop-color="#9b2f82" />
      <stop offset="16%" stop-color="#b9266f" />
      <stop offset="25.4%" stop-color="#d02061" />
      <stop offset="35.5%" stop-color="#e01b56" />
      <stop offset="46.8%" stop-color="#ea1850" />
      <stop offset="61.6%" stop-color="#ed174e" />
      <stop offset="100%" stop-color="#f9e57e" />
    </linearGradient>
    <linearGradient id="n" y2="83.51%" x2="46.73%" y1="7.76%" x1="54.03%">
      <stop offset="0%" stop-color="#7e3895" />
      <stop offset="7.1%" stop-color="#9b2f82" />
      <stop offset="16%" stop-color="#b9266f" />
      <stop offset="25.4%" stop-color="#d02061" />
      <stop offset="35.5%" stop-color="#e01b56" />
      <stop offset="46.8%" stop-color="#ea1850" />
      <stop offset="61.6%" stop-color="#ed174e" />
      <stop offset="100%" stop-color="#f9e57e" />
    </linearGradient>
    <linearGradient id="o" y2="115.33%" x2="44.60%" y1="16.08%" x1="52.65%">
      <stop offset="0%" stop-color="#7e3895" />
      <stop offset="7.1%" stop-color="#9b2f82" />
      <stop offset="16%" stop-color="#b9266f" />
      <stop offset="25.4%" stop-color="#d02061" />
      <stop offset="35.5%" stop-color="#e01b56" />
      <stop offset="46.8%" stop-color="#ea1850" />
      <stop offset="61.6%" stop-color="#ed174e" />
      <stop offset="100%" stop-color="#f9e57e" />
    </linearGradient>
    <linearGradient id="p" y2="118.97%" x2="44.43%" y1="11.61%" x1="53.14%">
      <stop offset="0%" stop-color="#7e3895" />
      <stop offset="7.1%" stop-color="#9b2f82" />
      <stop offset="16%" stop-color="#b9266f" />
      <stop offset="25.4%" stop-color="#d02061" />
      <stop offset="35.5%" stop-color="#e01b56" />
      <stop offset="46.8%" stop-color="#ea1850" />
      <stop offset="61.6%" stop-color="#ed174e" />
      <stop offset="100%" stop-color="#f9e57e" />
    </linearGradient>
    <linearGradient id="q" y2="159.90%" x2="37.38%" y1="1.18%" x1="55.59%">
      <stop offset="0%" stop-color="#7e3895" />
      <stop offset="7.1%" stop-color="#9b2f82" />
      <stop offset="16%" stop-color="#b9266f" />
      <stop offset="25.4%" stop-color="#d02061" />
      <stop offset="35.5%" stop-color="#e01b56" />
      <stop offset="46.8%" stop-color="#ea1850" />
      <stop offset="61.6%" stop-color="#ed174e" />
      <stop offset="100%" stop-color="#f9e57e" />
    </linearGradient>
    <linearGradient id="r" y2="157.27%" x2="39.46%" y1="-0.82%" x1="54.91%">
      <stop offset="0%" stop-color="#7e3895" />
      <stop offset="7.1%" stop-color="#9b2f82" />
      <stop offset="16%" stop-color="#b9266f" />
      <stop offset="25.4%" stop-color="#d02061" />
      <stop offset="35.5%" stop-color="#e01b56" />
      <stop offset="46.8%" stop-color="#ea1850" />
      <stop offset="61.6%" stop-color="#ed174e" />
      <stop offset="100%" stop-color="#f9e57e" />
    </linearGradient>
    <linearGradient id="s" y2="89.95%" x2="44.58%" y1="15.54%" x1="54.65%">
      <stop offset="0%" stop-color="#7e3895" />
      <stop offset="7.1%" stop-color="#9b2f82" />
      <stop offset="16%" stop-color="#b9266f" />
      <stop offset="25.4%" stop-color="#d02061" />
      <stop offset="35.5%" stop-color="#e01b56" />
      <stop offset="46.8%" stop-color="#ea1850" />
      <stop offset="61.6%" stop-color="#ed174e" />
      <stop offset="100%" stop-color="#f9e57e" />
    </linearGradient>
    <linearGradient id="t" y2="160.32%" x2="41.15%" y1="-2.99%" x1="54.20%">
      <stop offset="0%" stop-color="#7e3895" />
      <stop offset="7.1%" stop-color="#9b2f82" />
      <stop offset="16%" stop-color="#b9266f" />
      <stop offset="25.4%" stop-color="#d02061" />
      <stop offset="35.5%" stop-color="#e01b56" />
      <stop offset="46.8%" stop-color="#ea1850" />
      <stop offset="61.6%" stop-color="#ed174e" />
      <stop offset="100%" stop-color="#f9e57e" />
    </linearGradient>
    <linearGradient id="u" y2="92.21%" x2="45.24%" y1="17.51%" x1="53.69%">
      <stop offset="0%" stop-color="#7e3895" />
      <stop offset="7.1%" stop-color="#9b2f82" />
      <stop offset="16%" stop-color="#b9266f" />
      <stop offset="25.4%" stop-color="#d02061" />
      <stop offset="35.5%" stop-color="#e01b56" />
      <stop offset="46.8%" stop-color="#ea1850" />
      <stop offset="61.6%" stop-color="#ed174e" />
      <stop offset="100%" stop-color="#f9e57e" />
    </linearGradient>
    <linearGradient id="v" y2="155.27%" x2="41.70%" y1="-4.35%" x1="53.82%">
      <stop offset="0%" stop-color="#7e3895" />
      <stop offset="7.1%" stop-color="#9b2f82" />
      <stop offset="16%" stop-color="#b9266f" />
      <stop offset="25.4%" stop-color="#d02061" />
      <stop offset="35.5%" stop-color="#e01b56" />
      <stop offset="46.8%" stop-color="#ea1850" />
      <stop offset="61.6%" stop-color="#ed174e" />
      <stop offset="100%" stop-color="#f9e57e" />
    </linearGradient>
    <linearGradient id="w" y2="98.65%" x2="45.13%" y1="20.91%" x1="52.86%">
      <stop offset="0%" stop-color="#7e3895" />
      <stop offset="7.1%" stop-color="#9b2f82" />
      <stop offset="16%" stop-color="#b9266f" />
      <stop offset="25.4%" stop-color="#d02061" />
      <stop offset="35.5%" stop-color="#e01b56" />
      <stop offset="46.8%" stop-color="#ea1850" />
      <stop offset="61.6%" stop-color="#ed174e" />
      <stop offset="100%" stop-color="#f9e57e" />
    </linearGradient>
    <linearGradient id="x" y2="-83.25%" x2="116.75%" y1="73.49%" x1="18.92%">
      <stop offset="0%" stop-color="#693594" />
      <stop offset="10.6%" stop-color="#892e83" />
      <stop offset="26.5%" stop-color="#b4246c" />
      <stop offset="40.9%" stop-color="#d31d5c" />
      <stop offset="53.1%" stop-color="#e61952" />
      <stop offset="61.6%" stop-color="#ed174e" />
      <stop offset="100%" stop-color="#f9e57e" />
    </linearGradient>
    <linearGradient id="y" y2="-58.59%" x2="110.45%" y1="79.89%" x1="27.65%">
      <stop offset="0%" stop-color="#693594" />
      <stop offset="10.6%" stop-color="#892e83" />
      <stop offset="26.5%" stop-color="#b4246c" />
      <stop offset="40.9%" stop-color="#d31d5c" />
      <stop offset="53.1%" stop-color="#e61952" />
      <stop offset="61.6%" stop-color="#ed174e" />
      <stop offset="100%" stop-color="#f9e57e" />
    </linearGradient>
    <linearGradient id="z" y2="-54.34%" x2="91.19%" y1="76.95%" x1="38.01%">
      <stop offset="0%" stop-color="#693594" />
      <stop offset="10.6%" stop-color="#892e83" />
      <stop offset="26.5%" stop-color="#b4246c" />
      <stop offset="40.9%" stop-color="#d31d5c" />
      <stop offset="53.1%" stop-color="#e61952" />
      <stop offset="61.6%" stop-color="#ed174e" />
      <stop offset="100%" stop-color="#f9e57e" />
    </linearGradient>
    <linearGradient id="AA" y2="-44.39%" x2="87.78%" y1="82.66%" x1="32.79%">
      <stop offset="0%" stop-color="#693594" />
      <stop offset="10.6%" stop-color="#892e83" />
      <stop offset="26.5%" stop-color="#b4246c" />
      <stop offset="40.9%" stop-color="#d31d5c" />
      <stop offset="53.1%" stop-color="#e61952" />
      <stop offset="61.6%" stop-color="#ed174e" />
      <stop offset="100%" stop-color="#f9e57e" />
    </linearGradient>
    <linearGradient id="AB" y2="-52.03%" x2="85.15%" y1="78.54%" x1="40.52%">
      <stop offset="0%" stop-color="#693594" />
      <stop offset="10.6%" stop-color="#892e83" />
      <stop offset="26.5%" stop-color="#b4246c" />
      <stop offset="40.9%" stop-color="#d31d5c" />
      <stop offset="53.1%" stop-color="#e61952" />
      <stop offset="61.6%" stop-color="#ed174e" />
      <stop offset="100%" stop-color="#f9e57e" />
    </linearGradient>
    <linearGradient id="AC" y2="-34.28%" x2="78.70%" y1="87.65%" x1="34.04%">
      <stop offset="0%" stop-color="#693594" />
      <stop offset="10.6%" stop-color="#892e83" />
      <stop offset="26.5%" stop-color="#b4246c" />
      <stop offset="40.9%" stop-color="#d31d5c" />
      <stop offset="53.1%" stop-color="#e61952" />
      <stop offset="61.6%" stop-color="#ed174e" />
      <stop offset="100%" stop-color="#f9e57e" />
    </linearGradient>
    <linearGradient id="AD" y2="-44.45%" x2="78.04%" y1="77.99%" x1="41.11%">
      <stop offset="0%" stop-color="#693594" />
      <stop offset="10.6%" stop-color="#892e83" />
      <stop offset="26.5%" stop-color="#b4246c" />
      <stop offset="40.9%" stop-color="#d31d5c" />
      <stop offset="53.1%" stop-color="#e61952" />
      <stop offset="61.6%" stop-color="#ed174e" />
      <stop offset="100%" stop-color="#f9e57e" />
    </linearGradient>
    <linearGradient id="AE" y2="-43.52%" x2="80.00%" y1="82.13%" x1="40.72%">
      <stop offset="0%" stop-color="#693594" />
      <stop offset="10.6%" stop-color="#892e83" />
      <stop offset="26.5%" stop-color="#b4246c" />
      <stop offset="40.9%" stop-color="#d31d5c" />
      <stop offset="53.1%" stop-color="#e61952" />
      <stop offset="61.6%" stop-color="#ed174e" />
      <stop offset="100%" stop-color="#f9e57e" />
    </linearGradient>
    <linearGradient id="AF" y2="-29.36%" x2="77.63%" y1="98.19%" x1="34.00%">
      <stop offset="0%" stop-color="#693594" />
      <stop offset="10.6%" stop-color="#892e83" />
      <stop offset="26.5%" stop-color="#b4246c" />
      <stop offset="40.9%" stop-color="#d31d5c" />
      <stop offset="53.1%" stop-color="#e61952" />
      <stop offset="61.6%" stop-color="#ed174e" />
      <stop offset="100%" stop-color="#f9e57e" />
    </linearGradient>
    <linearGradient id="AG" y2="-51.10%" x2="78.25%" y1="85.72%" x1="40.18%">
      <stop offset="0%" stop-color="#693594" />
      <stop offset="10.6%" stop-color="#892e83" />
      <stop offset="26.5%" stop-color="#b4246c" />
      <stop offset="40.9%" stop-color="#d31d5c" />
      <stop offset="53.1%" stop-color="#e61952" />
      <stop offset="61.6%" stop-color="#ed174e" />
      <stop offset="100%" stop-color="#f9e57e" />
    </linearGradient>
    <linearGradient id="AH" y2="-27.01%" x2="74.65%" y1="106.26%" x1="32.33%">
      <stop offset="0%" stop-color="#693594" />
      <stop offset="10.6%" stop-color="#892e83" />
      <stop offset="26.5%" stop-color="#b4246c" />
      <stop offset="40.9%" stop-color="#d31d5c" />
      <stop offset="53.1%" stop-color="#e61952" />
      <stop offset="61.6%" stop-color="#ed174e" />
      <stop offset="100%" stop-color="#f9e57e" />
    </linearGradient>
    <linearGradient id="AI" y2="-48.54%" x2="78.04%" y1="90.00%" x1="39.39%">
      <stop offset="0%" stop-color="#693594" />
      <stop offset="10.6%" stop-color="#892e83" />
      <stop offset="26.5%" stop-color="#b4246c" />
      <stop offset="40.9%" stop-color="#d31d5c" />
      <stop offset="53.1%" stop-color="#e61952" />
      <stop offset="61.6%" stop-color="#ed174e" />
      <stop offset="100%" stop-color="#f9e57e" />
    </linearGradient>
    <linearGradient id="AJ" y2="-28.49%" x2="73.18%" y1="113.25%" x1="31.33%">
      <stop offset="0%" stop-color="#693594" />
      <stop offset="10.6%" stop-color="#892e83" />
      <stop offset="26.5%" stop-color="#b4246c" />
      <stop offset="40.9%" stop-color="#d31d5c" />
      <stop offset="53.1%" stop-color="#e61952" />
      <stop offset="61.6%" stop-color="#ed174e" />
      <stop offset="100%" stop-color="#f9e57e" />
    </linearGradient>
    <linearGradient id="AK" y2="-52.58%" x2="72.29%" y1="97.56%" x1="40.32%">
      <stop offset="0%" stop-color="#693594" />
      <stop offset="10.6%" stop-color="#892e83" />
      <stop offset="26.5%" stop-color="#b4246c" />
      <stop offset="40.9%" stop-color="#d31d5c" />
      <stop offset="53.1%" stop-color="#e61952" />
      <stop offset="61.6%" stop-color="#ed174e" />
      <stop offset="100%" stop-color="#f9e57e" />
    </linearGradient>
    <linearGradient id="AL" y2="-23.47%" x2="69.03%" y1="127.80%" x1="28.26%">
      <stop offset="0%" stop-color="#693594" />
      <stop offset="10.6%" stop-color="#892e83" />
      <stop offset="26.5%" stop-color="#b4246c" />
      <stop offset="40.9%" stop-color="#d31d5c" />
      <stop offset="53.1%" stop-color="#e61952" />
      <stop offset="61.6%" stop-color="#ed174e" />
      <stop offset="100%" stop-color="#f9e57e" />
    </linearGradient>
    <linearGradient id="AM" y2="-45.53%" x2="68.76%" y1="105.16%" x1="39.42%">
      <stop offset="0%" stop-color="#693594" />
      <stop offset="10.6%" stop-color="#892e83" />
      <stop offset="26.5%" stop-color="#b4246c" />
      <stop offset="40.9%" stop-color="#d31d5c" />
      <stop offset="53.1%" stop-color="#e61952" />
      <stop offset="61.6%" stop-color="#ed174e" />
      <stop offset="100%" stop-color="#f9e57e" />
    </linearGradient>
    <linearGradient id="AN" y2="-46.05%" x2="67.68%" y1="108.99%" x1="38.58%">
      <stop offset="0%" stop-color="#693594" />
      <stop offset="10.6%" stop-color="#892e83" />
      <stop offset="26.5%" stop-color="#b4246c" />
      <stop offset="40.9%" stop-color="#d31d5c" />
      <stop offset="53.1%" stop-color="#e61952" />
      <stop offset="61.6%" stop-color="#ed174e" />
      <stop offset="100%" stop-color="#f9e57e" />
    </linearGradient>
    <linearGradient id="AO" y2="-33.38%" x2="65.90%" y1="117.39%" x1="39.21%">
      <stop offset="0%" stop-color="#693594" />
      <stop offset="10.6%" stop-color="#892e83" />
      <stop offset="26.5%" stop-color="#b4246c" />
      <stop offset="40.9%" stop-color="#d31d5c" />
      <stop offset="53.1%" stop-color="#e61952" />
      <stop offset="61.6%" stop-color="#ed174e" />
      <stop offset="100%" stop-color="#f9e57e" />
    </linearGradient>
    <linearGradient id="AP" y2="-50.56%" x2="99.21%" y1="87.50%" x1="31.92%">
      <stop offset="0%" stop-color="#693594" />
      <stop offset="10.6%" stop-color="#892e83" />
      <stop offset="26.5%" stop-color="#b4246c" />
      <stop offset="40.9%" stop-color="#d31d5c" />
      <stop offset="53.1%" stop-color="#e61952" />
      <stop offset="61.6%" stop-color="#ed174e" />
      <stop offset="100%" stop-color="#f9e57e" />
    </linearGradient>
    <linearGradient id="AQ" y2="-32.99%" x2="90.09%" y1="105.59%" x1="24.91%">
      <stop offset="0%" stop-color="#693594" />
      <stop offset="10.6%" stop-color="#892e83" />
      <stop offset="26.5%" stop-color="#b4246c" />
      <stop offset="40.9%" stop-color="#d31d5c" />
      <stop offset="53.1%" stop-color="#e61952" />
      <stop offset="61.6%" stop-color="#ed174e" />
      <stop offset="100%" stop-color="#f9e57e" />
    </linearGradient>
    <linearGradient id="AR" y2="198.61%" x2="-150.22%" y1="0.73%" x1="141.05%">
      <stop offset="0%" stop-color="#d4e5ee" />
      <stop offset="7.2%" stop-color="#ccdee8" />
      <stop offset="18.6%" stop-color="#b5cbd7" />
      <stop offset="32.7%" stop-color="#90abbc" />
      <stop offset="48.8%" stop-color="#5e8096" />
      <stop offset="55.4%" stop-color="#476c85" />
      <stop offset="59.4%" stop-color="#5c7e95" />
      <stop offset="68.5%" stop-color="#87a3b5" />
      <stop offset="77.3%" stop-color="#a9c0ce" />
      <stop offset="85.7%" stop-color="#c1d4df" />
      <stop offset="93.5%" stop-color="#cfe1ea" />
      <stop offset="100%" stop-color="#d4e5ee" />
    </linearGradient>
    <linearGradient id="AS" y2="158.74%" x2="29.40%" y1="-268.72%" x1="110.68%">
      <stop offset="0%" stop-color="#d4e5ee" />
      <stop offset="7.2%" stop-color="#ccdee8" />
      <stop offset="18.6%" stop-color="#b5cbd7" />
      <stop offset="32.7%" stop-color="#90abbc" />
      <stop offset="48.8%" stop-color="#5e8096" />
      <stop offset="55.4%" stop-color="#476c85" />
      <stop offset="59.4%" stop-color="#5c7e95" />
      <stop offset="68.5%" stop-color="#87a3b5" />
      <stop offset="77.3%" stop-color="#a9c0ce" />
      <stop offset="85.7%" stop-color="#c1d4df" />
      <stop offset="93.5%" stop-color="#cfe1ea" />
      <stop offset="100%" stop-color="#d4e5ee" />
    </linearGradient>
    <linearGradient id="AT" y2="303.14%" x2="-26.33%" y1="-125.92%" x1="103.00%">
      <stop offset="0%" stop-color="#d4e5ee" />
      <stop offset="7.2%" stop-color="#ccdee8" />
      <stop offset="18.6%" stop-color="#b5cbd7" />
      <stop offset="32.7%" stop-color="#90abbc" />
      <stop offset="48.8%" stop-color="#5e8096" />
      <stop offset="55.4%" stop-color="#476c85" />
      <stop offset="59.4%" stop-color="#5c7e95" />
      <stop offset="68.5%" stop-color="#87a3b5" />
      <stop offset="77.3%" stop-color="#a9c0ce" />
      <stop offset="85.7%" stop-color="#c1d4df" />
      <stop offset="93.5%" stop-color="#cfe1ea" />
      <stop offset="100%" stop-color="#d4e5ee" />
    </linearGradient>
    <linearGradient id="AU" y2="218.42%" x2="-222.00%" y1="-23.92%" x1="155.95%">
      <stop offset="0%" stop-color="#d4e5ee" />
      <stop offset="7.2%" stop-color="#ccdee8" />
      <stop offset="18.6%" stop-color="#b5cbd7" />
      <stop offset="32.7%" stop-color="#90abbc" />
      <stop offset="48.8%" stop-color="#5e8096" />
      <stop offset="55.4%" stop-color="#476c85" />
      <stop offset="59.4%" stop-color="#5c7e95" />
      <stop offset="68.5%" stop-color="#87a3b5" />
      <stop offset="77.3%" stop-color="#a9c0ce" />
      <stop offset="85.7%" stop-color="#c1d4df" />
      <stop offset="93.5%" stop-color="#cfe1ea" />
      <stop offset="100%" stop-color="#d4e5ee" />
    </linearGradient>
    <linearGradient id="AV" y2="215.95%" x2="-46.54%" y1="-21.10%" x1="99.34%">
      <stop offset="0%" stop-color="#d4e5ee" />
      <stop offset="7.2%" stop-color="#ccdee8" />
      <stop offset="18.6%" stop-color="#b5cbd7" />
      <stop offset="32.7%" stop-color="#90abbc" />
      <stop offset="48.8%" stop-color="#5e8096" />
      <stop offset="55.4%" stop-color="#476c85" />
      <stop offset="59.4%" stop-color="#5c7e95" />
      <stop offset="68.5%" stop-color="#87a3b5" />
      <stop offset="77.3%" stop-color="#a9c0ce" />
      <stop offset="85.7%" stop-color="#c1d4df" />
      <stop offset="93.5%" stop-color="#cfe1ea" />
      <stop offset="100%" stop-color="#d4e5ee" />
    </linearGradient>
    <linearGradient id="AW" y2="218.81%" x2="-121.12%" y1="-18.82%" x1="115.54%">
      <stop offset="0%" stop-color="#d4e5ee" />
      <stop offset="7.2%" stop-color="#ccdee8" />
      <stop offset="18.6%" stop-color="#b5cbd7" />
      <stop offset="32.7%" stop-color="#90abbc" />
      <stop offset="48.8%" stop-color="#5e8096" />
      <stop offset="55.4%" stop-color="#476c85" />
      <stop offset="59.4%" stop-color="#5c7e95" />
      <stop offset="68.5%" stop-color="#87a3b5" />
      <stop offset="77.3%" stop-color="#a9c0ce" />
      <stop offset="85.7%" stop-color="#c1d4df" />
      <stop offset="93.5%" stop-color="#cfe1ea" />
      <stop offset="100%" stop-color="#d4e5ee" />
    </linearGradient>
    <linearGradient id="AX" y2="665.95%" x2="17.55%" y1="-1172.31%" x1="106.91%">
      <stop offset="0%" stop-color="#d4e5ee" />
      <stop offset="7.2%" stop-color="#ccdee8" />
      <stop offset="18.6%" stop-color="#b5cbd7" />
      <stop offset="32.7%" stop-color="#90abbc" />
      <stop offset="48.8%" stop-color="#5e8096" />
      <stop offset="55.4%" stop-color="#476c85" />
      <stop offset="59.4%" stop-color="#5c7e95" />
      <stop offset="68.5%" stop-color="#87a3b5" />
      <stop offset="77.3%" stop-color="#a9c0ce" />
      <stop offset="85.7%" stop-color="#c1d4df" />
      <stop offset="93.5%" stop-color="#cfe1ea" />
      <stop offset="100%" stop-color="#d4e5ee" />
    </linearGradient>
    <linearGradient id="AY" y2="148.52%" x2="33.20%" y1="-262.06%" x1="102.95%">
      <stop offset="0%" stop-color="#d4e5ee" />
      <stop offset="7.2%" stop-color="#ccdee8" />
      <stop offset="18.6%" stop-color="#b5cbd7" />
      <stop offset="32.7%" stop-color="#90abbc" />
      <stop offset="48.8%" stop-color="#5e8096" />
      <stop offset="55.4%" stop-color="#476c85" />
      <stop offset="59.4%" stop-color="#5c7e95" />
      <stop offset="68.5%" stop-color="#87a3b5" />
      <stop offset="77.3%" stop-color="#a9c0ce" />
      <stop offset="85.7%" stop-color="#c1d4df" />
      <stop offset="93.5%" stop-color="#cfe1ea" />
      <stop offset="100%" stop-color="#d4e5ee" />
    </linearGradient>
    <linearGradient id="AZ" y2="106.76%" x2="27.68%" y1="-175.46%" x1="120.24%">
      <stop offset="0%" stop-color="#d4e5ee" />
      <stop offset="7.2%" stop-color="#ccdee8" />
      <stop offset="18.6%" stop-color="#b5cbd7" />
      <stop offset="32.7%" stop-color="#90abbc" />
      <stop offset="48.8%" stop-color="#5e8096" />
      <stop offset="55.4%" stop-color="#476c85" />
      <stop offset="59.4%" stop-color="#5c7e95" />
      <stop offset="68.5%" stop-color="#87a3b5" />
      <stop offset="77.3%" stop-color="#a9c0ce" />
      <stop offset="85.7%" stop-color="#c1d4df" />
      <stop offset="93.5%" stop-color="#cfe1ea" />
      <stop offset="100%" stop-color="#d4e5ee" />
    </linearGradient>
    <linearGradient id="Aa" y2="104.28%" x2="3.93%" y1="-159.78%" x1="164.15%">
      <stop offset="0%" stop-color="#d4e5ee" />
      <stop offset="7.2%" stop-color="#ccdee8" />
      <stop offset="18.6%" stop-color="#b5cbd7" />
      <stop offset="32.7%" stop-color="#90abbc" />
      <stop offset="48.8%" stop-color="#5e8096" />
      <stop offset="55.4%" stop-color="#476c85" />
      <stop offset="59.4%" stop-color="#5c7e95" />
      <stop offset="68.5%" stop-color="#87a3b5" />
      <stop offset="77.3%" stop-color="#a9c0ce" />
      <stop offset="85.7%" stop-color="#c1d4df" />
      <stop offset="93.5%" stop-color="#cfe1ea" />
      <stop offset="100%" stop-color="#d4e5ee" />
    </linearGradient>
  </defs>
  <symbol id="Ab" overflow="visible">
    <g stroke="#d9d9d9" fill="#dcddde" class="B">
      <path
        d="M63.255 16.684c-5.115-.704-23.996-1.657-32.42-3.037-6.776-1.108-13.392-3.125-19.707-5.243-1.633-.548-4.527-1.673-6.374-2.667C3.584 4.842.768 3.516 0 2.258 12.241 8.07 17.164 9.67 31.529 12.577c5.822 1.196 27.016 2.912 31.726 4.107z"
        class="C" />
      <g class="D">
        <path
          d="M39.649 15.893l-.39-.433-.361-.361-.332-.288-.289-.189-.264-.086.448.028.264.029.259.028.264.029.264.029.264.014.231.029.361.332.347.317.304.318.275.318.274.302.505.591.264.275.259.274.275.245.289.245.332.226.347.217.39.202.434.188.491.158-.548.188-.535.045-.535-.087-.535-.216-.521-.289-.52-.375-.492-.431-.49-.463-.463-.475-.434-.477z" />
        <path
          d="M41.789 16.599l-.347-.39-.361-.39-.362-.39-.361-.36-.375-.332.143.014h.16l.145.015.158.014.16.014.158.03.158.013.159.015.158.014.173.014.159.029.346.028.174.014h.173l.174.015.13.202.158.246.203.288.217.304.264.332.275.332.289.346.304.332.318.318.317.304.334.274.318.226.318.187.318.131.303.075h.29l-.637.103-.592.014-.549-.057-.519-.129-.477-.202-.434-.246-.434-.289-.39-.332-.39-.346-.361-.375z" />
        <path
          d="M44.446 17.424l-.347-.375-.361-.448-.376-.49-.39-.534-.406-.606.246-.001.231.015.463.057.226.03.231.027h.534l.233.231.216.245.217.231.217.259.217.245.202.264.217.245.204.264.432.49.231.245.218.232.737.649.275.188-.361.044-.347.029-.332-.014-.332-.058-.333-.075-.318-.13-.317-.159-.333-.217-.332-.245-.333-.288zm1.462-.77l-.304-.361-.289-.361-.275-.317-.264-.275-.232-.231 1.546.144.174.226.188.231.173.232.173.226.174.231.189.232.173.226.188.231.203.216.203.226.202.218.232.215.231.217.246.217.264.203.274.2-.274.146-.302.058-.305-.044-.317-.129-.318-.189-.332-.264-.332-.288-.334-.346-.317-.362-.334-.374z" />
        <path
          d="M47.74 17.348l-.334-.388-.318-.415-.318-.432-.304-.434-.303-.415.26.043.202.014.145.014.13.015.129.015h.131l.189.014.246.014.275.39.274.36.275.348.304.303.289.274.289.264.303.226.289.203.289.172.29.159.274.115.264.102.264.087.232.057.231.029.203.014-.453.29-.415.189-.415.087h-.405l-.39-.075-.375-.129-.36-.204-.362-.258-.347-.318-.348-.332zm1.299-.263l-.303-.303-.289-.318-.275-.346-.275-.362-.264-.375.289.015.318.028.303.029.304.015.264.029.216.014.159.015.072.014.029.029.075.075.116.115.144.145.158.174.203.203.218.216.245.232.276.229.288.245.29.232.318.231.332.216.332.202.347.174.347.143-.463.057-.447.03-.434-.029-.415-.057-.391-.086-.39-.13-.361-.159-.347-.202-.347-.216-.318-.245z" />
        <path
          d="M50.962 16.997l-.318-.289-.304-.303-.289-.289-.264-.29-.245-.289h.173l.217.015.226.013h.245l.232.028.231.015.187.015.16.028v.03l.058.075.143.13.203.159.246.202.288.231.319.246.333.245.347.258.346.261.332.245.319.216.289.202.264.158.203.115.144.072-.39.076-.377.029-.39-.043-.39-.072-.39-.128-.375-.159-.376-.188-.377-.231-.347-.244-.346-.264z" />
        <path
          d="M52.359 16.664l-.377-.318-.332-.259-.245-.216-.16-.143-.072-.059.188.015.419.027.216.015.232.027.462.03.246.014.26.159.259.159.507.332.264.172.246.188.26.174.246.174.509.361.259.173.246.174.52.318.246.159.264.144-.231.231-.304.1-.376.001-.415-.1-.463-.173-.475-.244-.505-.289-.492-.317-.491-.347-.463-.345z" />
        <path
          d="M55.396 17.424l-.404-.275-.448-.303-.477-.332-.521-.346-.579-.361.246.015.274.015h.245l.245.014.217.014.174.015.115.015.044.013.029.043.087.087.13.115.173.159.217.187.246.219.264.215.303.231.304.226.318.232.318.201.333.203.317.172.318.145.304.101.275.059-.246.086-.245.044-.245.014-.246-.038-.245-.073-.264-.1-.274-.145-.289-.174-.318-.202-.332-.226z" />
        <path
          d="M55.454 16.792l-.275-.264-.246-.216-.187-.188-.145-.129-.088-.088.232.015.218.015.215.014.217.028.202.015.218.014.226.028.231.015.173.158.189.158.173.159.189.174.188.188.188.174.202.174.204.174.404.318.218.143.201.129.232.113.217.1.231.073.231.057-.332.13-.361.057-.377-.027-.39-.101-.404-.145-.39-.188-.405-.229-.376-.264-.361-.26-.347-.275zm2.182.46l-.549-.49-.264-.264-.264-.245-.264-.232.159.015.173.029.389.029.217.028.231.015.246.028.231.014.072.174.101.173.102.159.13.158.143.145.318.288.187.116.189.115.203.101.216.101.217.072.231.058.226.057.246.029.245.015-.288.202-.288.13-.289.058-.289.015-.29-.057-.288-.088-.289-.129-.288-.174-.275-.188-.289-.226z" />
        <path
          d="M58.82 17.279l-.232-.186-.202-.204-.173-.216-.13-.245-.087-.246.173.015.174.014.188.029.189.015.187.014.415.029.246.014.101.144.116.145.115.13.115.116.116.115.131.087.129.102.131.087.143.075.159.072.158.075.174.058.173.058.187.057.203.043.204.058-.246.1-.264.073-.274.043-.304.001-.289-.015-.318-.044-.606-.172-.29-.129-.275-.145z" />
        <path
          d="M60.395 17.148l-.203-.145-.203-.158-.173-.174-.13-.174-.115-.188.245.029.145.014.131.014.129.015.116.014h.202v.057l.13.115.217.159.289.188.346.187.347.189.347.143.304.087-.087.087-.131.057-.158.03h-.173l-.202-.014-.216-.043-.232-.073-.231-.076-.231-.102-.232-.116z" />
        <path
          d="M61.045 16.82l-.174-.13-.158-.116-.116-.087-.075-.058-.014-.029 1.126.129.087.057.145.073.173.087.189.087.202.102.188.076.173.075.145.043-.029.202-.072.13-.115.059-.158.029-.189-.029-.217-.075-.216-.087-.232-.115-.232-.131-.217-.143z" />
        <path
          d="M63.081 17.089h-.203l-.264-.076-.264-.131-.275-.143-.246-.131-.202-.086.246.015.217.015.202.013.188.014.174.015.188.013.188.03.218.043-.044.275z" />
        <path
          d="M63.167 16.194l-.203-.073-.274-.012-.289.057-.289.073-.246.087-.189.058.247.043.216.029.188.043.189.029.173.043.173.043.203.044.217.057.015-.318zm-22.032-4.263l-.405.376-.404.361-.404.347-.405.332-.415.304.145.028.159.014.158.015.145.029.159.015.158.014.173.014.159.015.159.013.174.015.173.029.333.029.172.028.188.014.173.029.144-.201.187-.247.217-.289.259-.29.274-.318.304-.318.332-.318.332-.304.362-.289.36-.26.361-.232.376-.187.361-.145.361-.087.361-.015.332.057-.635-.245-.604-.159-.563-.043-.535.029-.52.113-.476.174-.463.246-.447.275-.434.319-.415.347z" />
        <path
          d="M43.893 11.585l-.39.362-.415.415-.415.478-.447.535-.477.592.264.015.231.027.217.015.201.029.203.029.216.029.247.043.288.044.264-.216.245-.231.264-.246.231-.247.49-.49.231-.246.245-.245.246-.231.259-.217.246-.217.259-.217.274-.188.289-.16.289-.158.304-.131-.362-.13-.347-.086-.331-.057-.348-.029-.331.029-.347.072-.332.101-.347.159-.361.203-.362.264z" />
        <path
          d="M45.122 12.711l-.347.361-.317.332-.592.568-.264.216 1.575.187.202-.231.202-.232.188-.231.201-.231.203-.231.201-.245.418-.453.462-.433.246-.203.26-.188.274-.187.289-.16.303-.144.318-.13-.274-.226-.305-.116-.332-.028-.332.075-.361.144-.361.203-.375.264-.376.303-.376.332-.375.347z" />
        <path
          d="M46.985 12.334l-.708.766-.346.42-.346.415-.347.415.275.015.226.014.188.015.346.057.189.028.216.029.261.043.303-.39.288-.347.303-.318.289-.275.302-.231.289-.203.275-.174.289-.144.275-.113.259-.087.275-.072.264-.058.245-.03.246-.028h.245.231l-.434-.415-.415-.302-.405-.201-.405-.116-.404-.014-.39.058-.39.145-.376.188-.375.264-.361.303z" />
        <path
          d="M48.549 12.935l-.331.264-.333.29-.317.317-.304.348-.303.376.303.044.347.038.695.087.317.043.245.03.189.014h.075l.028-.028.073-.058.101-.101.129-.13.16-.158.187-.16.217-.187.245-.203.274-.189.289-.202.318-.189.346-.187.347-.16.375-.144.39-.131.405-.087-.478-.174-.447-.13-.448-.075-.415-.029h-.415l-.404.058-.39.088-.376.13-.375.158-.347.203z" />
        <path
          d="M50.727 13.472l-.375.245-.333.261-.332.274-.302.275-.274.275.187.014.231.029.535.058.275.028.246.029.217.014h.158v-.029l.072-.075.143-.101.217-.145.264-.158.304-.189.347-.203.361-.201.36-.204.376-.203.377-.187.346-.172.319-.146.287-.116.232-.073.187-.043-.39-.158-.39-.116-.415-.043h-.405l-.415.044-.415.087-.404.13-.415.159-.39.188-.39.203z" />
        <path
          d="M52.245 14.136l-.434.274-.36.232-.275.173-.187.129-.087.044.203.044.226.029.246.028.264.014.274.029.275.028.519.087.275-.13.259-.131.275-.143.259-.145.264-.131.26-.144.275-.145.26-.143.264-.132.259-.144.275-.129.259-.115.264-.131.274-.115.274-.113.275-.1-.203-.318-.303-.188-.376-.07h-.433l-.477.101-.521.159-.549.217-.534.246-.549.275-.505.289zm3.237.503l-.303.203-.274.189-.217.174-.158.116-.087.073.231.028.217.029.187.029.189.014.202.014.187.029.217.029.226.028.203-.128.203-.131.217-.159.216-.145.226-.159.231-.159.231-.16.462-.289.245-.116.246-.115.232-.088.244-.075.232-.044h.231l.231.014-.318-.226-.361-.131-.376-.057h-.404l-.42.075-.433.131-.415.158-.415.189-.39.217-.389.217z" />
        <path
          d="M55.528 13.902l-.433.232-.477.245-.52.261-.566.289-.622.29.232.015.264.028.264.029.264.042.231.029.172.029.131.013.058-.013.029-.029.102-.075.13-.113.173-.129.216-.159.264-.174.275-.189.303-.189.664-.375.361-.16.361-.145.362-.115.361-.074.347-.038h.346l-.246-.159-.259-.115-.246-.058-.26-.028-.264.014-.274.057-.304.102-.316.116-.347.16-.362.174zm2.139.648l-.318.204-.318.202-.606.435-.303.187.173.029.188.015.217.044.231.027.245.03.264.027.245.029.246.029.087-.188.101-.159.115-.159.145-.144.144-.13.158-.102.189-.102.188-.087.202-.075.216-.058.217-.043.231-.03.245-.014h.246l.505.057-.264-.289-.274-.216-.275-.144-.289-.087-.289-.014-.303.029-.318.073-.303.102-.317.159-.304.158zm2.827.764l-.226.102-.218.115-.202.144-.159.159-.143.173.129.029.159.029.158.029.16.028.144.014.116.015h.115l.058-.029.143-.087.246-.116.289-.128.332-.113.375-.102.361-.058.362.014-.073-.116-.115-.104-.159-.085-.173-.059-.202-.043-.231-.014h-.231l-.264.014-.245.043-.264.059z" />
        <path
          d="M61.116 15.862l-.202.087-.174.087-.144.058-.075.058-.029.014 1.156.201.102-.043.158-.044.174-.058.203-.058.202-.043.202-.028h.188l.159.028.014-.226-.057-.174-.102-.116-.158-.072-.187-.029-.217.015-.231.029-.264.058-.49.174zm-2.211-1.056l-.264.144-.245.174-.202.202-.158.231-.13.264.189.015.172.029.189.013.203.029.202.029.216.014.231.044.245.027.087-.128.101-.116.115-.101.129-.102.144-.087.158-.087.16-.072.174-.057.174-.058.188-.043.173-.029.189-.015.188-.014h.187l.189.015.174.028-.231-.188-.245-.145-.275-.129-.304-.087-.304-.058-.303-.038h-.318l-.317.027-.303.059-.303.102zM9.686 11.149l.073.318.159.29.245.259.347.202.453.145-.073-.218-.044-.226-.043-.226-.029-.264-.015-.264v-.274l.014-.264.014-.275.029-.275.028-.274.044-.264.058-.246.043-.245.058-.217.075-.217.058-.188-.072-.028-.058-.015-.075-.029-.059-.014-.058-.029-.068-.015-.072-.03-.075-.029-.029.044-.073.116-.1.187-.13.231-.146.274-.143.304-.13.347-.114.346-.086.362-.03.347z" />
        <path
          d="M11.619 13.199l.187.101.204.075.174.029.158.014h.145l-.174-.462-.072-.264-.058-.264-.057-.289-.044-.288-.044-.289-.029-.303-.015-.304v-.321l.015-.303.028-.318.043-.303.059-.318.075-.289.087-.304-.172-.058-.175-.057-.159-.058-.158-.043-.131-.043-.143-.043-.115-.029-.102-.029-.202.792-.144.722-.075.621-.014.549.029.477.087.404.115.347.131.288.174.231.188.187zm.954.288l.216.289.275.217.317.114.362.015.418-.115-.158-.261-.158-.274-.131-.289-.116-.274-.087-.303-.088-.29-.057-.303-.058-.304-.029-.303-.015-.317v-.303l.028-.318.029-.318.057-.304.058-.318.087-.303-.145-.057-.173-.058-.521-.173-.143-.058-.13-.044-.101-.028-.087.289-.086.362-.059.405-.027.447-.015.492v.49l.044.49.073.478.103.447.13.415zm.753-1.879l-.029-.491v-.49l.043-.491.087-.477.129-.448.159.057.16.058.172.043.175.058.173.058.188.058.174.057.187.057v.303.332l.015.377.029.779.014.405.044.415.043.389.059.39.057.361.088.347.101.304.116.259.145.218.159.158.174.1-.391.03-.376-.058-.332-.143-.303-.202-.289-.275-.246-.332-.202-.375-.189-.415-.145-.448-.113-.477z" />
        <path
          d="M16.129 10.634l.015.347.014.361.001.754.03.766.029.377.043.375.073.347.076.318.115.303.13.274.159.232.202.187-.418-.101-.347-.144-.289-.201-.245-.232-.202-.275-.16-.317-.115-.347-.088-.362-.059-.404-.043-.415-.03-.896-.029-.939v-.48l-.029-.492.145.058.145.043.129.043.146.029.144.043.131.043.144.044.143.058.029.289z" />
        <path
          d="M16.159 12.299l-.001-1.433-.029-.434-.03-.404.159.043.144.043.129.044.146.043.143.043.129.043.145.029.16.043-.015.043-.028.101-.03.16-.043.203-.028.26-.029.289-.015.332.015.376.043.39.073.432.131.453.158.462.232.477.289.505.347.49.434.505-.577-.028-.492-.115-.404-.187-.333-.246-.264-.317-.189-.361-.159-.404-.102-.448-.058-.462-.043-.475z" />
        <path
          d="M17.272 13.161l-.113-.566-.072-.564-.015-.577.057-.549.116-.55 1.369.44-.014.231-.014.275.014.302.03.347.043.361.072.39.073.404.116.415.131.415.158.405.174.404.217.39.231.376.275.346.303.318.333.274-.39.072-.39-.028-.375-.13-.376-.203-.361-.273-.347-.332-.318-.404-.29-.448-.245-.477-.217-.52z" />
        <path
          d="M20.811 12.093l.028.362.014.376.044.375.029.391.044.375.058.376.075.361.088.347.116.345.13.318.159.304.188.259.202.245.245.217-.289.043-.303-.015-.303-.075-.303-.13-.303-.189-.304-.226-.289-.288-.289-.361-.264-.39-.231-.463-.218-.505-.187-.577-.146-.622-.115-.663-.074-.738-.029-.779.216.075.275.072.305.101.317.087.304.102.303.086.264.075.203.043.029.332z" />
        <path
          d="M20.927 13.611l-.044-.491-.014-.492-.029-.448-.028-.415-.044-.376.202.043.175.043.158.058.158.043.175.044.159.038.187.058.217.057.044.392.042.374.044.376.059.36.044.362.058.346.075.332.074.332.101.318.116.317.144.304.159.303.202.302.217.29.264.274.29.274-.651.03-.549-.058-.477-.158-.376-.246-.317-.303-.261-.361-.187-.404-.145-.462-.116-.462-.075-.506z" />
        <path
          d="M22.483 13.942l-.073-.49-.075-.462-.044-.434-.044-.405-.03-.347.204.044.173.042.159.044.16.029.143.043.16.028.187.058.218.043.072.564.087.535.102.49.101.462.113.415.13.404.144.346.145.333.145.303.16.274.174.232.159.216.173.202.174.159.188.144.174.131-.578.029-.498-.073-.448-.158-.391-.245-.332-.304-.289-.361-.232-.418-.202-.448-.173-.462-.13-.49z" />
        <path
          d="M24.019 14.244l-.116-.476-.102-.453-.072-.434-.057-.389-.059-.348.174.029.174.044.174.043.174.044.174.043.173.042.173.043.188.044.014.273.044.304.058.318.101.346.102.375.144.361.145.39.159.377.189.376.203.361.201.332.218.317.216.304.232.264.245.216.233.174-.55.029-.491-.075-.434-.16-.404-.231-.332-.302-.304-.347-.264-.405-.232-.432-.202-.453-.159-.476z" />
        <path
          d="M25.362 14.084l-.145-.476-.087-.405-.073-.332-.043-.245v-.143l.216.038.203.043.202.058.202.043.202.057.189.043.188.044.189.029.072.245.162.621.103.376.116.39.129.404.145.404.16.421.174.404.188.375.203.362.216.318.247.273.245.216.275.159.288.087-.566.073-.521-.075-.477-.187-.434-.289-.405-.36-.347-.433-.317-.49-.29-.505-.231-.538-.203-.521z" />
        <path
          d="M27.153 14.776l-.145-.463-.115-.433-.088-.39-.087-.346-.076-.274.158.029.16.014.143.028.131.029.145.029.131.029.115.028.13.015.044.332.075.347.088.346.086.333.113.346.13.332.144.318.347.635.203.303.232.288.226.264.275.264.274.226.304.216.332.202-.519.116h-.461l-.42-.101-.39-.202-.332-.275-.304-.332-.274-.403-.246-.434-.204-.462-.188-.476z" />
        <path
          d="M28.512 15.554l-.216-.447-.174-.477-.145-.505-.131-.521-.087-.533.188.043.189.029.202.043.187.028.188.029.174.043.189.029.174.043.087.304.072.317.087.304.074.303.087.303.086.303.115.289.131.304.159.289.175.303.217.289.259.289.29.275.346.289.405.289.448.274h-.433l-.419-.043-.404-.101-.391-.145-.361-.201-.362-.245-.317-.288-.317-.318-.275-.362-.264-.39z" />
        <path
          d="M30.057 15.872l-.216-.46-.187-.492-.16-.505-.115-.519-.088-.521.16.029.174.044.172.028.174.028.174.029.189.043.188.029.189.044.057.36.087.361.113.362.145.346.172.346.189.346.217.333.245.318.264.318.289.288.305.274.331.264.347.226.375.218.377.187.404.158-.564.044-.548-.029-.505-.087-.478-.145-.447-.187-.42-.245-.39-.29-.346-.346-.318-.36-.289-.405z" />
        <path
          d="M31.546 15.941l-.245-.415-.202-.446-.174-.463-.131-.478-.087-.49.158.028.145.014.259.029.131.014.144.029.173.028.204.029.203.419.174.389.333.723.174.332.16.303.174.288.188.274.203.275.231.245.26.264.289.226.333.245.376.226.418.231.477.226-.477-.028-.462-.075-.463-.116-.447-.172-.42-.203-.415-.244-.39-.275-.361-.318-.332-.346-.318-.375z" />
        <path
          d="M33.019 16.058l-.259-.453-.246-.447-.218-.447-.203-.463-.187-.447.129.014.174.029.434.057.231.043.203.029.172.029.131.013.174.405.189.405.218.375.216.36.246.332.259.332.275.304.303.304.303.274.334.259.346.26.362.231.375.216.404.202.405.188.434.174-.708.029-.665-.027-.592-.101-.549-.159-.505-.216-.447-.261-.42-.302-.375-.347-.347-.375-.318-.404z" />
        <path
          d="M34.882 16.403l-.377-.434-.332-.448-.303-.475-.261-.505-.217-.521.217.03.217.028.226.014.231.029.202.014.173.029.144.029.072.043.264.202.264.217.55.519.274.289.289.303.289.318.29.318.289.332.604.635.318.317.318.318.319.287.318.289.333.259-.391-.014-.404-.058-.434-.101-.447-.158-.448-.186-.453-.232-.448-.274-.448-.303-.434-.346-.419-.361zm2.312.069l-.448-.49-.448-.476-.462-.476-.463-.434-.462-.389h.16l.187.028.217.014.216.044.232.029.231.043.216.043.189.028.722.664.348.347.347.347.332.345.333.347.332.347.319.317.318.317.318.29.303.259.303.231.304.202.289.174.289.129.289.087-.376.247-.389.101-.39.001-.405-.101-.404-.203-.405-.275-.415-.346-.415-.39-.852-.91z" />
        <path
          d="M38.452 16.297l-.724-.807-.375-.39-.39-.361-.404-.346.144.015.173.014.218.028.216.015.218.028.174.014.144.015h.087l.245.057.245.115.245.16.261.216.264.259.275.304.289.318.29.346.332.361.333.361.376.376.389.362.419.36.448.332.477.302.521.275-.593.001-.563-.058-.506-.145-.492-.186-.448-.232-.415-.289-.406-.317-.375-.347-.376-.375-.361-.39zM11.544 3.694l.216-.275.247-.203.318-.115.39-.015.447.115-.145.145-.129.173-.13.217-.115.231-.115.264-.102.264-.099.289-.102.303-.086.289-.075.304-.073.303-.075.289-.058.29-.057.274-.043.245-.043.231-.075-.014-.048-.022-.075-.029-.058-.014-.057-.03-.054-.028-.072-.014-.085-.03v-.058l-.015-.158-.014-.245-.015-.304-.015-.361.028-.795.038-.415.087-.39.116-.376zm2.326-.782l.159.029.158.057.144.075.131.087.115.087-.202.188-.201.216-.174.203-.186.226-.16.232-.159.245-.144.246-.129.261-.13.274-.231.578-.101.304-.086.318-.087.318-.086.332-.073.347-.172-.029-.13-.014-.091-.029-.054-.029-.057-.014-.059-.029-.058-.015-.087-.028.188-.943.202-.795.202-.679.201-.563.204-.453.201-.361.201-.264.189-.187.202-.131.173-.058z" />
        <path
          d="M14.577 3.241l.318-.16.332-.058.333.058.318.189.332.331-.26.188-.245.217-.232.216-.216.217-.217.226-.187.264-.174.264-.158.26-.16.29-.129.289-.13.304-.1.317-.101.332-.073.347-.075.362-.058.375-.157-.043-.174-.057-.189-.058-.188-.072-.174-.075-.158-.058-.129-.057-.087-.029.043-.346.074-.39.115-.434.143-.462.189-.477.216-.462.226-.448.26-.415.275-.376.289-.318z" />
        <path
          d="M14.493 5.54l-.216.462-.187.492-.144.519-.116.521-.057.534.347.088.174.057.174.059.188.075.189.043.172.058.189.028.13-.332.115-.362.145-.361.131-.361.143-.376.158-.376.16-.361.158-.346.172-.333.189-.304.201-.288.204-.246.226-.217.232-.173.245-.131.264-.075-.347-.231-.347-.13-.361-.043-.347.043-.361.115-.347.189-.333.264-.318.304-.287.347-.289.405z" />
        <path
          d="M16.038 6.335l-.172.462-.172.48-.158.477-.174.448-.187.419.159.014.145.043.145.043.145.058.143.045.145.057.159.043.159.028.014-.057.014-.145.043-.188.043-.264.075-.303.102-.347.115-.376.159-.39.186-.39.217-.39.274-.391.303-.361.362-.346.404-.289.463-.261.519-.189-.549-.244-.491-.13-.434-.014-.39.073-.347.158-.304.245-.273.304-.245.361-.217.404-.187.448z" />
        <path
          d="M17.382 6.13l-.304.506-.259.534-.203.578-.128.592-.075.636 1.488.388.086-.245.116-.29.115-.303.144-.332.173-.347.175-.361.203-.362.216-.361.246-.361.273-.347.289-.317.303-.305.331-.274.362-.232.376-.203.404-.159-.333-.245-.376-.158-.404-.058-.404.015-.434.086-.433.174-.415.232-.415.29-.404.361-.376.406z" />
        <path
          d="M20.273 9.249l.159-.376.158-.391.159-.389.173-.376.188-.375.188-.376.201-.346.216-.319.232-.303.246-.274.245-.246.275-.203.303-.159.303-.115-.261-.174-.288-.13-.304-.087-.332-.029-.346.029-.362.087-.361.144-.375.217-.377.274-.375.347-.375.434-.36.491-.347.578-.346.649-.318.752-.302.823.216.043.274.058.275.087.304.087.288.1.275.072.245.075.202.058.144-.361z" />
        <path
          d="M20.966 7.746l-.201.505-.203.491-.188.477-.173.434-.172.39.202.029.174.042.159.03.318.087.173.043.188.029.216.043.189-.39.173-.391.174-.375.173-.361.173-.361.187-.332.189-.332.187-.304.217-.304.226-.274.231-.26.26-.246.29-.232.302-.202.347-.188.361-.173-.592-.317-.534-.188-.492-.043-.447.073-.389.173-.376.264-.317.333-.304.405-.264.448-.245.477z" />
        <path
          d="M22.512 8.221l-.246.476-.226.478-.203.433-.172.42-.16.361.216.043.189.043.174.043.158.029.173.043.174.043.202.029.231.044.264-.579.259-.534.244-.49.245-.453.232-.404.216-.362.443-.621.231-.246.232-.217.226-.188.245-.158.247-.116.258-.101.276-.058.288-.043-.536-.288-.505-.144-.477-.028-.462.075-.415.174-.404.264-.376.318-.347.376-.317.434-.302.444z" />
        <path
          d="M24 8.635l-.232.448-.226.453-.189.434-.172.39-.158.362.174.043.159.043.16.029.144.044.158.029.158.028.174.043.188.029.087-.288.129-.319.158-.318.188-.347.202-.347.49-.694.274-.347.288-.317.304-.319.3-.285.303-.246.318-.231.303-.188.303-.144.304-.087-.52-.245-.493-.116h-.46l-.453.088-.404.173-.383.242-.361.318-.347.361-.302.404-.289.434z" />
        <path
          d="M25.07 9.476l-.245.447-.202.391-.159.331-.087.246-.043.145.216.043.188.043.564.13.174.028.189.029.188.029.13-.245.145-.303.173-.333.203-.347.215-.39.232-.39.244-.376.264-.39.274-.362.289-.332.302-.303.303-.246.318-.203.318-.13.331-.057.333.013-.535-.287-.521-.13-.521.015-.49.145-.477.231-.462.332-.434.392-.404.433-.375.464-.332.476z" />
        <path
          d="M26.904 9.418l-.259.462-.415.839-.158.346-.145.289.174.029.144.043.13.043.116.043.13.043.115.043.116.029.129.028.13-.36.158-.361.159-.347.174-.346.203-.347.2-.318.231-.318.245-.304.264-.289.288-.264.289-.232.318-.217.347-.189.347-.158.376-.116.404-.087-.486-.314-.461-.173-.434-.043-.434.075-.404.174-.39.261-.361.318-.345.39-.318.42-.303.446z" />
        <path
          d="M28.305 9.17l-.318.42-.303.462-.264.505-.264.535-.215.566.188.029.187.029.189.043.188.058.187.043.188.058.188.043.189.028.129-.318.129-.332.131-.318.129-.333.158-.318.159-.304.189-.317.202-.289.245-.275.259-.275.304-.246.332-.232.376-.203.415-.188.475-.16.521-.129-.42-.159-.415-.1-.433-.029-.405.029-.415.088-.389.13-.39.202-.39.246-.361.289-.346.347z" />
        <path
          d="M29.763 9.472l-.317.434-.288.476-.246.505-.226.521-.202.566.174.029.174.029.592.087.203.028.404.057.102-.404.145-.375.158-.376.201-.362.217-.332.245-.318.264-.303.289-.275.317-.264.346-.216.362-.204.375-.174.404-.13.42-.116.433-.075.448-.029-.549-.226-.551-.151-.505-.075-.505-.014-.477.075-.462.131-.433.188-.42.246-.374.304-.375.347z" />
        <path
          d="M31.122 9.948l-.303.39-.264.434-.226.462-.189.505-.143.536.174.013.145.014.144.029.145.029.144.028.144.029.174.043.187.029.246-.415.231-.405.201-.361.189-.361.202-.318.188-.303.188-.289.216-.264.231-.245.26-.217.29-.202.318-.188.375-.16.404-.144.477-.131.534-.116-.491-.075-.476-.043-.476.015-.463.058-.461.116-.434.145-.415.188-.405.232-.376.275-.36.318z" />
        <path
          d="M32.567 10.294l-.303.415-.275.433-.259.463-.231.462-.231.477.116.014.158.014.174.043.189.029.187.043.174.043.158.014.13.015.216-.434.231-.39.264-.376.274-.346.289-.333.303-.304.332-.274.347-.264.361-.233.376-.216.391-.188.404-.188.415-.159.433-.145.453-.13.461-.113-.722-.172-.679-.101-.621-.028-.577.059-.535.115-.491.174-.447.216-.405.29-.389.318-.346.362z" />
        <path
          d="M34.359 10.422l-.433.39-.39.434-.361.462-.317.506-.274.549.203.015.201.029.203.043.202.043.174.043.145.044.115.014.075-.014.29-.174.287-.203.303-.231.318-.264.318-.275.331-.29.347-.289.346-.303.362-.304.361-.304.376-.303.376-.275.39-.275.375-.246.404-.231.389-.203-.404-.075-.42-.014-.462.015-.476.072-.478.102-.49.145-.491.188-.49.232-.49.275-.462.319z" />
        <path
          d="M36.468 10.955l-.506.448-.519.453-.52.42-.519.39-.521.347.158.028.189.014.231.015.231.014.245.014h.463l.188-.001.39-.289.754-.604.346-.318.347-.304.333-.304.331-.304.332-.289.347-.26.332-.245.347-.217.361-.189.376-.159.39-.13.405-.073.415-.044-.361-.36-.39-.216-.405-.087-.415.029-.433.116-.462.217-.463.29-.49.332-.997.824z" />
        <path
          d="M37.566 11.504l-.419.376-.836.723-.448.318-.447.304.143.014.188.028.218.029.217.014.216.03.189.027.143.015.087.014h.26l.264-.075.274-.131.289-.187.289-.232.318-.274 1.04-.955.389-.346.415-.333.434-.318.475-.305.491-.274.521-.246.563-.189-.603-.143-.563-.057-.534.029-.507.103-.476.174-.462.217-.447.275-.433.304-.83.695z" />
        <path
          d="M38.766 12.269l-.433.375-.39.318-.361.245-.318.145-.274.044.226.029.246.043.274.043.289.044.289.028.289.043.275.014.246.014.404-.304.361-.289.331-.289.317-.274.289-.275.274-.274.289-.261.274-.245.275-.231.303-.218.317-.203.347-.187.376-.174.404-.145.462-.131.505-.116-.534-.304-.564-.128h-.549l-.566.116-.564.217-.564.303-.548.362-.534.39-.506.434-.491.434zM9.276 2.222l.013-.174.014-.173.03-.173.042-.174.043-.158-.226.303-.174.333-.13.318-.075.332-.029.347v.347l.044.346.073.347.086.346.113.333.259.664.145.318.13.318.13.288.129.289-.028-.057-.014-.102-.016-.1v-.13l-.014-.16v-.332-.187l-.015-.189v-.188l-.015-.201-.015-.188-.014-.173-.029-.173-.028-.159-.044-.144-.072-.144-.058-.159-.057-.159-.043-.158-.044-.174-.043-.187-.029-.173-.016-.189-.014-.173-.013-.189z" />
        <path
          d="M7.993 8.406l.246-.144.231-.146.247-.128.259-.146.264-.144-.226.226-.232.233-.231.226-.231.217-.245.226-.246.203-.245.204-.26.188-.245.174-.264.144-.245.13-.259.102-.264.087-.26.043-.261.014-.264-.014.275-.159.275-.174.519-.318.245-.144.246-.159.232-.145.226-.158.246-.144.229-.145zm1.255-2.513l.13.172.145.159.131.173.129.173.13.174-.058-.187-.073-.189-.075-.203-.174-.404-.1-.189-.113-.188-.13-.187-.144-.174-.174-.143-.188-.145-.203-.13-.231-.102-.246-.087-.288-.058-.304-.029.202.116.189.13.187.13.347.259.159.144.16.158.16.144.289.318z" />
        <path
          d="M10.013 5.544l.088.528.043.264.057.264.059.274.029-.317.043-.304.058-.635.014-.304.014-.304-.015-.304-.015-.288-.029-.289-.044-.259-.073-.264-.087-.245-.101-.216-.145-.203-.159-.174-.187-.158.058.289.043.289.058.289.044.264.029.274.043.264.03.264.043.264.028.259.044.264zm-1.285-.158l.245.264.232.264.201.216.175.204.145.158-.029-.433-.058-.375-.075-.318-.116-.288-.115-.245-.146-.217-.144-.202-.16-.189-.144-.187-.16-.187-.144-.203-.116-.231-.115-.26-.087-.289-.073-.347-.028-.389-.261.244-.157.275-.075.289-.015.304.058.303.116.318.16.318.189.317.217.303.226.303z" />
        <path
          d="M10.171 3.695l.057-.264.073-.264.101-.264.086-.264.115-.264-.415.405-.346.39-.245.362-.172.347-.116.332-.057.303-.014.304.029.274.074.264.07.245.102.232.102.201.087.203.086.173.058.173.029.145v-.304l.015-.289.013-.288.015-.29.014-.275.029-.274.029-.274.028-.261.044-.259.043-.275zM8.149 7.872l.448-.029.664-.087-.188.087-.189.076-.202.088-.203.075-.217.073-.444.116-.226.029-.231.015h-.245l-.245-.015-.247-.057-.245-.075-.245-.102-.245-.143-.247-.173.231.043.232.044.462.057.226.014.232.014h.444l.231-.015h.216z" />
        <path
          d="M5.163 9.636l-.146.101-.129.116-.116.116-.115.115-.102.13.101-.346.159-.305.186-.259.232-.245.259-.203.29-.189.317-.158.332-.131.697-.234.36-.088.361-.087.361-.073.347-.076.318-.058.318-.072-.159.058-.216.115-.264.175-.317.188-.318.202-.332.189-.318.174-.29.116-.174.03-.158.028-.174.043-.172.044-.175.073-.172.057-.159.073-.173.087-.159.087-.158.1zm3.119-1.072l.333-.174.302-.158.289-.146.245-.129.187-.113-.201.42-.203.347-.216.275-.202.246-.217.188-.216.174-.649.391-.218.144-.216.145-.202.174-.203.212-.202.264-.188.304-.188.375-.13-.332-.044-.318.044-.318.116-.289.172-.275.231-.274.274-.264.303-.232.318-.231.332-.202z" />
        <path
          d="M8.515 10.573l-.087.245-.075.264-.072.245-.058.264-.057.275-.145-.549-.075-.477-.015-.434.043-.375.086-.318.13-.289.158-.246.173-.203.203-.189.202-.158.216-.13.202-.115.187-.115.174-.101.242-.218-.159.246-.159.246-.158.245-.143.231-.13.231-.13.245-.13.232-.115.231-.115.246-.101.245z" />
      </g>
    </g>
    <g stroke="#231f20">
      <path
        d="M63.27 15.314c-5.115-.704-23.996-1.657-32.42-3.037-6.775-1.108-13.392-3.125-19.707-5.243-1.633-.548-4.527-1.673-6.374-2.667C3.599 3.472.783 2.141.015.888 12.256 6.7 17.184 8.3 31.544 11.207c5.822 1.196 27.016 2.912 31.726 4.112z"
        fill="#231f20" class="B C" />
      <g class="D">
        <path
          d="M39.664 14.523l-.391-.433-.361-.361-.332-.288-.289-.189-.264-.086.448.028.264.029.259.028.521.059.264.014.231.029.361.332.347.317.304.318.275.318.274.302.506.591.521.549.275.245.289.245.332.226.347.218.39.202.434.187.491.158-.548.188-.535.044-.535-.087-.535-.216-.52-.289-.521-.375-.492-.432-.49-.462-.463-.475-.434-.478z"
          fill="url(#A)" class="B" />
        <path
          d="M41.804 15.229l-.347-.389-.361-.39-.362-.39-.361-.36-.375-.332.143.014h.16l.145.015.318.028.158.029.159.014.158.015.158.014.174.014.159.029.52.038h.174l.174.015.13.202.158.246.203.288.217.304.264.332.275.332.289.346.304.332.318.318.317.303.334.274.318.231.318.187.318.131.303.075h.29l-.637.102-.592.014-.549-.057-.52-.13-.477-.201-.434-.246-.434-.289-.39-.332-.39-.346-.361-.375z"
          fill="url(#B)" class="B" />
        <path
          d="M44.462 16.05l-.347-.375-.361-.448-.376-.49-.39-.534-.405-.607.245-.001.231.015.232.029.231.029.226.029.231.027h.534l.233.231.216.245.217.232.216.26.217.245.202.264.217.245.204.264.216.245.217.245.231.245.218.232.737.649.275.189-.361.044-.347.029-.332-.014-.332-.058-.333-.075-.318-.13-.317-.159-.333-.216-.332-.245-.333-.288z"
          fill="url(#C)" class="B" />
        <path
          d="M45.92 15.283l-.304-.361-.289-.361-.275-.317-.264-.275-.232-.232 1.546.144.174.231.188.226.173.232.174.229.173.232.189.231.174.231.188.231.203.216.203.226.203.218.231.215.231.216.246.217.264.202.274.201-.274.146-.303.058-.304-.044-.318-.129-.318-.189-.332-.264-.332-.288-.333-.346-.317-.361-.334-.375z"
          fill="url(#D)" class="B" />
        <path
          d="M47.756 15.975l-.333-.389-.318-.415-.318-.432-.304-.434-.303-.415.26.043.202.014.145.014.26.029h.13l.189.014.246.014.275.39.274.36.275.347.304.303.289.274.289.264.303.226.289.202.289.173.29.158.274.115.264.101.264.087.232.057.231.028.203.014-.453.289-.415.189-.415.087h-.405l-.39-.072-.375-.129-.36-.203-.362-.259-.347-.317-.348-.332z"
          fill="url(#E)" class="B" />
        <path
          d="M49.055 15.715l-.303-.303-.289-.318-.275-.346-.275-.362-.264-.375.289.015.318.028.303.029.304.014.264.029.216.013.158.015.073.014.029.029.075.075.116.116.144.145.159.174.202.202.218.216.244.232.276.229.288.245.29.232.318.226.332.216.332.202.347.174.347.143-.463.058-.447.03-.434-.029-.415-.057-.391-.086-.39-.13-.361-.159-.347-.202-.347-.216-.318-.245z"
          fill="url(#F)" class="B" />
        <path
          d="M50.977 15.627l-.318-.289-.304-.303-.289-.289-.264-.289-.245-.289h.173l.217.015.226.014h.245l.232.027.231.015.187.015.16.029v.029l.058.075.143.131.203.158.246.202.288.231.319.246.333.244.347.259.346.264.332.245.319.217.289.202.264.159.203.115.144.072-.39.072-.376.029-.39-.043-.39-.075-.39-.129-.375-.16-.376-.187-.377-.226-.347-.245-.346-.264z"
          fill="url(#G)" class="B" />
        <path
          d="M52.378 15.294l-.377-.318-.332-.26-.245-.217-.16-.143-.072-.058.188.014.203.014.217.014.216.015.232.027.462.03.246.014.26.158.26.159.261.172.245.16.264.172.246.188.26.173.246.174.509.361.259.174.246.173.52.318.246.159.264.145-.231.231-.304.101h-.376l-.415-.1-.463-.174-.475-.244-.505-.29-.492-.317-.491-.347-.462-.345z"
          fill="url(#H)" class="B" />
        <path
          d="M55.411 16.053l-.404-.275-.448-.303-.477-.332-.521-.346-.579-.361.246.015.274.015h.245l.245.014.217.014.174.014.115.015.044.014.029.043.087.087.13.116.173.159.216.188.246.218.264.215.603.462.318.231.318.201.333.203.317.172.318.145.304.101.275.058-.246.087-.245.044-.245.014-.246-.038-.245-.073-.264-.1-.274-.144-.289-.174-.318-.202-.332-.231z"
          fill="url(#I)" class="B" />
        <path
          d="M55.469 15.421l-.275-.264-.246-.216-.187-.189-.145-.128-.088-.088.232.014.218.015.215.014.217.028.202.015.218.014.226.028.231.014.173.158.189.158.173.159.189.174.188.188.188.174.202.174.204.173.404.318.218.143.201.129.232.113.217.1.231.073.231.057-.332.13-.361.057-.376-.027-.39-.101-.404-.144-.39-.188-.405-.226-.376-.264-.361-.264-.347-.274z"
          fill="url(#J)" class="B" />
        <path
          d="M57.65 15.881l-.549-.49-.264-.264-.264-.245-.264-.232.159.015.174.029.389.029.217.028.231.015.246.028.231.014.072.174.101.173.102.159.13.159.143.144.318.288.188.115.189.116.203.101.216.101.217.076.231.058.226.057.246.029.245.015-.288.202-.288.13-.289.058-.289.015-.29-.057-.288-.088-.289-.129-.289-.173-.275-.188-.289-.231z"
          fill="url(#K)" class="B" />
        <path
          d="M58.835 15.909l-.232-.187-.202-.203-.173-.216-.13-.246-.087-.246.173.015.174.014.188.029.375.029.203.014.217.015.246.014.101.145.116.144.115.13.115.115.116.115.131.087.129.102.131.087.143.075.318.151.173.058.174.057.187.057.203.043.204.058-.246.1-.264.073-.274.043h-.304l-.289-.014-.318-.043-.303-.087-.303-.086-.29-.13-.275-.145z"
          fill="url(#L)" class="B" />
        <path
          d="M60.409 15.778l-.203-.145-.203-.158-.173-.174-.13-.173-.115-.188.245.029.144.014.131.014.245.029h.202v.058l.13.115.217.159.289.188.693.375.347.143.304.087-.087.087-.131.057-.158.03h-.174l-.202-.014-.216-.043-.232-.073-.231-.076-.231-.102-.232-.116z"
          fill="url(#M)" class="B" />
        <path
          d="M61.06 15.447l-.174-.131-.158-.116-.116-.087-.075-.058-.014-.029 1.126.128.087.057.146.073.173.087.189.087.202.101.188.075.173.072.145.043-.029.203-.072.129-.115.059-.158.029-.189-.028-.217-.073-.216-.086-.232-.116-.232-.13-.217-.143z"
          fill="url(#N)" class="B" />
        <path
          d="M63.096 15.719h-.203l-.264-.075-.264-.131-.275-.144-.246-.13-.202-.087.246.015.216.015.202.014.188.014.174.015.188.014.188.029.218.043-.044.275z"
          fill="url(#O)" class="B" />
        <path
          d="M63.183 14.823l-.203-.072-.274-.013-.289.057-.289.073-.245.087-.189.058.246.042.216.029.187.043.189.028.173.043.174.044.203.044.217.058.015-.318z"
          fill="url(#P)" class="B" />
        <path
          d="M41.151 10.564l-.405.376-.404.361-.404.347-.405.333-.415.304.145.027.158.014.158.015.145.029.159.015.158.014.173.014.159.015.159.013.174.015.173.029.333.029.172.028.188.014.173.029.144-.202.187-.246.217-.289.259-.289.274-.318.304-.318.332-.318.332-.304.362-.289.36-.259.361-.232.376-.187.361-.145.361-.087.361-.015.332.058-.635-.246-.604-.159-.566-.043-.535.029-.521.113-.476.174-.463.246-.447.275-.434.318-.415.347z"
          fill="url(#Q)" class="B" />
        <path
          d="M43.908 10.215l-.39.362-.418.415-.415.477-.447.535-.477.592.264.015.231.027.217.015.404.057.216.029.247.043.288.044.264-.216.245-.231.264-.247.231-.246.49-.49.231-.246.245-.246.246-.231.259-.216.246-.217.259-.217.274-.188.289-.159.289-.159.304-.131-.362-.13-.347-.085-.331-.058-.348-.029-.331.029-.347.073-.332.101-.347.159-.361.203-.362.261z"
          fill="url(#R)" class="B" />
        <path
          d="M45.137 11.338l-.347.361-.317.332-.317.303-.275.261-.264.217 1.575.187.202-.231.202-.232.189-.232.201-.226.203-.231.202-.246.216-.232.202-.217.232-.217.231-.216.246-.203.259-.188.274-.187.289-.16.303-.144.318-.13-.274-.231-.305-.115-.332-.028-.332.075-.361.145-.361.203-.375.259-.376.304-.376.332-.375.347z"
          fill="url(#S)" class="B" />
        <path
          d="M47.001 10.96l-.708.766-1.038 1.257.275.015.226.013.188.015.174.029.173.029.189.028.216.029.261.042.303-.39.289-.347.303-.318.289-.274.302-.231.289-.204.275-.174.289-.144.275-.113.26-.087.275-.073.264-.057.245-.03.246-.028h.245.231l-.434-.419-.415-.302-.405-.202-.405-.115-.404-.014-.39.058-.39.145-.376.188-.375.264-.361.303z"
          fill="url(#T)" class="B" />
        <path
          d="M48.561 11.569l-.331.264-.333.289-.317.318-.304.348-.303.376.303.043.347.042.695.087.317.043.245.03.189.014h.075l.028-.029.073-.058.101-.101.129-.13.16-.158.187-.16.217-.187.245-.203.274-.189.289-.202.318-.189.346-.187.347-.16.375-.144.39-.131.405-.086-.478-.174-.448-.13-.448-.075-.415-.029h-.415l-.404.059-.39.087-.376.131-.375.159-.347.203z"
          fill="url(#U)" class="B" />
        <path
          d="M50.742 12.102l-.375.246-.333.261-.332.274-.302.274-.274.275.187.014.231.029.264.028.549.058.246.029.216.014h.159v-.029l.072-.072.143-.101.217-.145.264-.159.304-.189.347-.203.361-.201.36-.204.376-.203.722-.36.319-.146.287-.116.232-.073.187-.044-.39-.158-.391-.115-.415-.043h-.405l-.415.044-.415.086-.404.13-.415.159-.39.188-.39.203z"
          fill="url(#V)" class="B" />
        <path
          d="M52.26 12.766l-.434.274-.36.232-.275.174-.187.129-.087.044.203.044.226.029.246.028.264.015.274.03.275.028.52.087.275-.13.259-.131.275-.143.259-.145.264-.13.26-.145.275-.145.26-.144.264-.132.259-.144.275-.129.259-.116.264-.131.274-.115.274-.113.275-.1-.203-.318-.303-.188-.376-.07h-.433l-.477.101-.521.159-.549.217-.534.246-.549.275-.505.289z"
          fill="url(#W)" class="B" />
        <path
          d="M55.496 13.269l-.303.202-.274.189-.217.174-.158.115-.087.073.231.028.216.029.187.029.189.014.202.014.187.029.217.029.226.028.203-.129.203-.131.216-.159.217-.144.226-.159.232-.158.231-.16.462-.289.244-.116.246-.115.231-.088.245-.075.232-.044h.231l.231.014-.318-.226-.361-.13-.376-.057h-.404l-.42.075-.433.131-.415.159-.415.189-.78.434z"
          fill="url(#X)" class="B" />
        <path
          d="M55.539 12.531l-.433.232-.477.245-.52.261-.566.288-.622.289.232.015.264.028.264.029.264.042.231.03.172.029.13.013.058-.013.029-.03.102-.075.13-.113.173-.13.216-.159.264-.173.275-.189.303-.189.332-.188.333-.187.36-.16.361-.145.362-.115.361-.074.347-.042h.347l-.247-.159-.259-.115-.246-.058-.259-.028-.264.014-.274.057-.304.102-.316.116-.347.16-.362.174z"
          fill="url(#Y)" class="B" />
        <path
          d="M57.678 13.18l-.318.204-.318.202-.303.216-.304.218-.303.187.173.029.188.014.217.044.231.027.245.03.264.028.245.03.246.028.087-.187.102-.159.115-.159.145-.145.145-.13.158-.102.189-.102.188-.087.202-.075.216-.058.217-.043.231-.03.245-.014h.246l.505.057-.264-.289-.274-.216-.275-.144-.289-.087-.289-.014-.303.029-.318.072-.303.102-.317.159-.304.159z"
          fill="url(#Z)" class="B" />
        <path
          d="M60.509 13.943l-.226.102-.218.116-.201.145-.159.159-.143.173.129.029.159.029.158.029.16.028.144.014.116.015h.115l.058-.029.143-.087.246-.115.289-.129.332-.113.375-.101.361-.058.362.014-.073-.115-.115-.101-.159-.086-.173-.059-.202-.043-.231-.014h-.231l-.264.014-.245.043-.264.059z"
          fill="url(#a)" class="B" />
        <path
          d="M61.128 14.492l-.202.087-.174.087-.144.058-.075.057-.029.014 1.156.201.102-.042.158-.044.174-.058.203-.058.202-.043.202-.028h.188l.159.028.014-.226-.057-.174-.102-.116-.158-.075-.187-.03-.217.015-.231.029-.264.058-.245.087-.245.088z"
          fill="url(#b)" class="B" />
        <path
          d="M58.92 13.439l-.264.145-.245.173-.202.202-.158.231-.13.264.189.015.172.029.189.014.203.029.202.03.216.014.231.043.245.027.087-.128.101-.116.115-.101.129-.102.145-.087.158-.087.16-.073.174-.057.174-.058.187-.044.174-.029.189-.015.188-.014h.187l.189.014.174.028-.231-.188-.246-.144-.275-.129-.304-.088-.304-.058-.303-.038h-.318l-.317.027-.303.059-.303.102z"
          fill="url(#c)" class="B" />
        <path
          d="M9.701 9.78l.073.318.159.29.245.259.347.202.453.145-.073-.218-.044-.226-.043-.231-.029-.264-.015-.264v-.273l.014-.264.014-.275.029-.275.028-.273.044-.264.058-.245.043-.246.058-.217.075-.216.059-.188-.075-.028-.058-.015-.075-.029-.059-.014-.058-.029-.057-.015-.072-.029-.075-.029-.029.044-.073.116-.1.188-.13.231-.146.274-.143.304-.13.347-.114.346-.086.362-.03.347z"
          fill="url(#d)" class="B" />
        <path
          d="M11.638 11.83l.187.1.204.072.174.029.158.014h.145l-.174-.463-.072-.259-.058-.264-.057-.289-.044-.288-.044-.289-.028-.303-.016-.304v-.318l.015-.303.028-.318.043-.303.058-.318.075-.289.087-.304-.172-.058-.175-.057-.159-.058-.157-.043-.131-.043-.143-.044-.115-.029-.102-.029-.202.795-.144.722-.075.621-.014.549.029.477.087.404.115.347.131.288.174.231.188.187z"
          fill="url(#e)" class="B" />
        <path
          d="M12.593 12.117l.216.289.275.217.317.115.362.015.418-.116-.159-.264-.158-.274-.131-.288-.116-.274-.087-.303-.088-.289-.057-.304-.058-.303-.029-.303-.014-.317v-.304l.028-.318.029-.317.057-.304.058-.319.087-.302-.144-.058-.347-.115-.174-.058-.173-.056-.143-.058-.131-.045-.101-.028-.087.289-.086.362-.059.405-.027.447-.015.491.001.49.044.49.072.477.103.448.13.415z"
          fill="url(#f)" class="B" />
        <path
          d="M13.342 10.239l-.029-.491v-.49l.043-.491.087-.477.129-.448.159.057.16.058.172.043.175.058.173.058.188.058.174.058.188.057v.303.332l.015.377.029.779.014.404.044.415.043.389.059.391.057.361.088.347.101.304.116.259.145.218.158.158.174.101-.391.03-.376-.058-.332-.143-.303-.202-.289-.275-.246-.332-.202-.375-.189-.415-.145-.448-.113-.477z"
          fill="url(#g)" class="B" />
        <path
          d="M16.143 9.268l.015.347.014.361v.754l.03.766.029.376.043.375.073.347.075.318.115.303.13.274.159.233.202.187-.418-.101-.347-.144-.289-.201-.245-.232-.203-.275-.159-.317-.116-.347-.088-.362-.059-.404-.043-.415-.03-.896-.029-.939V8.8l-.029-.492.145.058.145.043.129.043.146.029.144.043.131.043.145.044.143.058.029.289z"
          fill="url(#h)" class="B" />
        <path
          d="M16.174 10.93l-.001-1.433-.029-.434-.03-.404.158.043.145.043.129.044.146.043.144.043.129.043.145.029.16.043-.015.043-.028.102-.029.159-.043.203-.028.259-.029.29-.015.332.015.376.043.39.074.432.131.453.159.462.232.477.289.505.347.49.434.505-.577-.028-.492-.115-.404-.187-.333-.245-.264-.318-.189-.361-.158-.404-.102-.448-.058-.463-.043-.475z"
          fill="url(#i)" class="B" />
        <path
          d="M17.287 11.795l-.113-.566-.072-.564-.015-.578.057-.548.116-.549 1.372.433-.014.231-.014.275.014.302.03.347.043.361.072.39.073.405.116.415.131.415.158.405.174.404.217.39.231.375.275.347.303.317.333.274-.39.072-.39-.027-.375-.131-.376-.203-.361-.273-.347-.332-.319-.404-.29-.448-.245-.477-.217-.52z"
          fill="url(#j)" class="B" />
        <path
          d="M20.827 10.723l.028.362.014.375.044.375.029.391.044.375.058.376.075.361.088.347.116.346.13.317.159.305.188.259.202.245.245.217-.289.043-.303-.014-.303-.075-.303-.129-.303-.189-.304-.231-.289-.288-.289-.361-.264-.39-.231-.463-.218-.505-.187-.576-.146-.623-.115-.663-.073-.738-.029-.78.216.075.275.075.305.101.317.086.304.102.303.086.264.075.203.043.029.332z"
          fill="url(#k)" class="B" />
        <path
          d="M20.942 12.241l-.044-.491-.014-.492-.03-.448-.028-.415-.044-.375.202.043.175.044.158.058.157.042.175.044.159.042.187.058.218.057.044.391.042.375.044.376.059.36.044.362.058.346.075.332.074.332.101.318.116.317.144.304.159.304.202.302.217.289.264.274.29.274-.651.03-.549-.058-.477-.158-.377-.247-.317-.302-.261-.361-.187-.405-.145-.461-.116-.462-.075-.507z"
          fill="url(#l)" class="B" />
        <path
          d="M22.502 12.571l-.073-.49-.075-.463-.044-.434-.044-.405-.03-.346.204.044.173.042.159.043.16.029.143.043.16.028.187.057.218.043.072.565.087.535.102.49.102.462.113.415.13.404.144.347.145.333.144.303.16.274.174.231.159.216.174.202.174.158.188.145.174.13-.578.029-.505-.072-.448-.158-.391-.245-.332-.304-.288-.361-.232-.417-.203-.448-.173-.462-.131-.49z"
          fill="url(#m)" class="B" />
        <path
          d="M24.034 12.873l-.116-.475-.102-.453-.072-.434-.057-.389-.059-.347.174.029.174.044.174.043.348.087.173.042.173.043.188.044.014.274.044.304.058.318.101.346.102.376.144.361.145.39.159.377.189.376.203.361.201.332.218.317.216.304.232.264.245.216.233.174-.55.029-.491-.076-.434-.16-.404-.226-.332-.303-.304-.347-.264-.404-.232-.432-.202-.453-.159-.476z"
          fill="url(#n)" class="B" />
        <path
          d="M25.377 12.713l-.145-.475-.087-.405-.072-.332-.043-.245v-.143l.216.042.203.043.202.057.202.044.202.057.189.043.188.043.189.03.072.245.162.62.103.376.116.39.129.404.145.404.16.421.174.404.187.375.203.362.216.318.247.273.245.217.275.158.288.087-.566.073-.521-.075-.477-.187-.434-.289-.405-.36-.347-.433-.317-.49-.29-.505-.232-.534-.203-.521z"
          fill="url(#o)" class="B" />
        <path
          d="M27.168 13.406l-.145-.463-.116-.433-.088-.39-.087-.346-.076-.274.159.029.16.014.143.028.131.029.145.029.13.03.115.028.13.015.045.332.075.347.088.346.086.333.113.346.13.332.144.318.347.635.203.303.232.289.226.264.275.264.274.226.304.217.332.202-.519.116h-.461l-.42-.1-.39-.202-.332-.275-.304-.332-.274-.403-.246-.434-.204-.462-.188-.475z"
          fill="url(#p)" class="B" />
        <path
          d="M28.527 14.184l-.216-.447-.174-.476-.145-.505-.131-.521-.087-.533.188.043.189.029.202.044.187.028.188.029.173.042.189.029.174.044.087.303.072.318.087.304.074.303.087.303.086.303.115.289.131.303.159.289.175.303.217.289.259.289.29.275.346.289.405.289.448.274-.433.001-.419-.043-.404-.101-.391-.144-.361-.201-.361-.245-.318-.288-.317-.318-.275-.362-.264-.389z"
          fill="url(#q)" class="B" />
        <path
          d="M30.072 14.501l-.216-.461-.187-.492-.16-.505-.115-.519-.088-.521.16.029.174.044.346.057.174.03.189.043.188.029.189.043.057.36.087.361.113.362.144.346.172.346.189.346.217.333.245.318.264.318.289.287.305.274.331.264.347.231.375.217.377.188.404.158-.564.044-.548-.029-.505-.087-.478-.143-.447-.188-.42-.245-.39-.29-.346-.346-.318-.36-.289-.405z"
          fill="url(#r)" class="B" />
        <path
          d="M31.561 14.572l-.245-.415-.202-.447-.174-.462-.131-.478-.087-.49.158.028.145.014.131.015.129.015.131.014.144.029.173.028.204.028.203.42.173.388.333.723.174.332.16.303.173.288.188.274.203.275.231.245.26.264.289.226.334.245.376.226.418.231.477.226-.477-.028-.462-.076-.463-.115-.447-.173-.42-.202-.415-.244-.39-.275-.361-.317-.332-.346-.318-.375z"
          fill="url(#s)" class="B" />
        <path
          d="M33.034 14.687l-.259-.453-.246-.446-.218-.448-.203-.462-.187-.448.129.014.174.029.216.029.217.029.231.043.203.029.172.029.131.014.173.405.189.405.218.375.216.36.246.332.26.332.275.303.303.304.303.274.334.259.346.264.362.231.375.216.404.202.405.187.434.173-.708.029-.665-.028-.592-.101-.549-.159-.505-.216-.447-.261-.42-.302-.374-.347-.347-.375-.318-.405z"
          fill="url(#t)" class="B" />
        <path
          d="M34.898 15.033l-.377-.434-.332-.448-.303-.476-.261-.505-.217-.521.217.03.217.028.226.014.231.029.202.014.173.029.144.029.072.043.264.202.264.217.55.519.274.289.289.302.289.318.29.319.289.332.604.635.318.317.318.318.319.288.318.289.333.259-.39-.014-.404-.058-.434-.101-.447-.158-.448-.187-.453-.231-.448-.274-.448-.303-.434-.346-.415-.361z"
          fill="url(#u)" class="B" />
        <path
          d="M37.209 15.102l-.448-.49-.448-.477-.462-.477-.463-.433-.462-.389h.16l.187.028.217.014.216.044.232.029.231.043.216.043.189.028.722.664.348.347.347.347.332.345.665.694.641.634.318.29.303.259.303.232.304.202.289.174.289.129.289.087-.376.247-.389.101h-.39l-.405-.101-.404-.202-.405-.275-.415-.346-.415-.39-.852-.91z"
          fill="url(#v)" class="B" />
        <path
          d="M38.466 14.928l-.724-.807-.375-.39-.39-.361-.404-.346.144.015.173.014.218.028.216.015.218.027.174.014.144.015h.087l.245.057.245.115.245.159.261.216.264.259.275.304.289.318.29.345.332.361.333.36.376.376.389.362.419.36.448.332.477.302.521.275h-.593l-.563-.057-.506-.145-.492-.186-.448-.232-.415-.288-.406-.317-.376-.347-.376-.375-.361-.39z"
          fill="url(#w)" class="B" />
        <path
          d="M11.559 2.324l.216-.274.247-.203.318-.116.39-.015.447.115-.145.145-.129.174-.13.216-.116.231-.115.264-.102.264-.099.289-.102.303-.086.289-.075.304-.073.303-.075.289-.058.29-.057.274-.043.245-.043.232-.075-.014-.058-.014-.075-.03-.059-.014-.057-.03-.059-.028-.072-.014-.085-.029v-.058l-.015-.159-.014-.245-.015-.304-.015-.361.028-.794.038-.415.087-.39.116-.376z"
          fill="url(#x)" class="B" />
        <path
          d="M13.886 1.541l.159.029.158.058.144.076.131.087.115.087-.202.188-.201.216-.174.203-.186.231-.16.232-.159.244-.144.246-.129.264-.13.274-.231.578-.101.304-.086.317-.087.318-.086.333-.073.347-.172-.029-.13-.014-.088-.029-.058-.029-.057-.014-.059-.029-.058-.015-.087-.028.188-.943.202-.792.202-.679.201-.563.204-.448.201-.361.201-.264.189-.187.202-.131.173-.058z"
          fill="url(#y)" class="B" />
        <path
          d="M14.593 1.874l.318-.16.332-.057.333.057.318.189.332.331-.26.188-.245.217-.232.217-.216.217-.216.226-.187.264-.174.264-.158.26-.16.29-.129.289-.13.303-.1.318-.101.332-.073.347-.075.362-.059.375-.157-.043-.174-.057-.189-.058-.188-.075-.174-.075-.158-.058-.129-.057-.087-.029.043-.346.074-.391.115-.434.143-.462.189-.477.216-.463.226-.447.26-.42.275-.376.289-.318z"
          fill="url(#z)" class="B" />
        <path
          d="M14.507 4.171l-.216.462-.187.492-.144.519-.115.521-.057.534.174.043.173.044.174.057.174.058.188.072.189.043.172.058.188.028.13-.332.115-.362.145-.361.131-.361.143-.376.158-.376.16-.361.159-.346.172-.333.189-.304.201-.289.204-.245.226-.217.232-.174.244-.131.264-.075-.347-.231-.347-.129-.361-.044-.347.044-.361.115-.347.189-.333.264-.318.303-.287.347-.289.405z"
          fill="url(#AA)" class="B" />
        <path
          d="M16.049 4.964l-.172.462-.172.477-.158.476-.174.448-.187.415.158.014.145.044.144.043.145.057.143.045.145.057.158.043.159.028.014-.057.014-.144.043-.188.043-.264.075-.303.102-.347.115-.376.158-.39.186-.39.217-.39.274-.39.303-.361.362-.346.404-.289.463-.261.519-.189-.549-.244-.491-.13-.434-.014-.39.073-.347.158-.304.245-.273.304-.245.361-.217.404-.187.448z"
          fill="url(#AB)" class="B" />
        <path
          d="M17.398 4.76l-.304.506-.259.534-.203.578-.129.592-.076.636 1.488.388.086-.245.116-.29.115-.303.144-.332.174-.347.172-.361.203-.362.216-.361.246-.361.273-.347.288-.318.303-.304.331-.275.362-.231.376-.203.404-.158-.333-.245-.376-.158-.404-.058-.404.015-.434.087-.433.174-.415.232-.415.29-.404.361-.376.406z"
          fill="url(#AC)" class="B" />
        <path
          d="M20.288 7.878l.159-.376.158-.391.159-.389.173-.376.188-.376.188-.376.201-.346.216-.318.232-.303.246-.274.245-.246.275-.202.303-.16.303-.115-.261-.174-.288-.129-.304-.087-.332-.028-.346.029-.362.087-.361.144-.375.218-.377.274-.375.347-.375.434-.36.492-.347.578-.346.65-.318.751-.302.824.216.043.274.057.275.087.304.087.288.101.275.075.245.075.202.057.144-.361z"
          fill="url(#AD)" class="B" />
        <path
          d="M20.981 6.377l-.201.505-.202.49-.189.477-.173.433-.172.391.202.029.174.042.159.03.159.043.159.043.173.043.188.029.216.042.189-.39.173-.391.174-.375.346-.723.187-.332.189-.332.187-.304.217-.304.226-.274.231-.259.26-.246.29-.232.302-.202.347-.188.361-.174-.592-.317-.534-.188-.492-.043-.447.073-.389.173-.376.261-.317.333-.304.405-.259.448-.245.477z"
          fill="url(#AE)" class="B" />
        <path
          d="M22.527 6.851l-.246.477-.226.477-.203.433-.172.415-.16.361.216.043.189.043.174.043.158.029.173.044.174.043.202.029.231.043.264-.578.259-.534.244-.491.245-.448.232-.404.216-.362.226-.317.217-.304.231-.245.232-.217.226-.188.245-.158.247-.116.258-.101.276-.059.288-.043-.536-.288-.505-.144-.477-.029-.462.072-.415.174-.404.264-.376.318-.347.377-.317.434-.303.448z"
          fill="url(#AF)" class="B" />
        <path
          d="M24.015 7.268l-.231.448-.226.453-.189.434-.172.39-.158.362.174.043.159.043.16.029.144.044.158.029.159.028.173.043.188.029.087-.289.129-.318.159-.318.187-.347.202-.347.49-.694.274-.347.289-.317.304-.319.303-.289.303-.246.318-.231.304-.188.302-.144.304-.087-.52-.245-.493-.116h-.46l-.453.088-.404.173-.39.247-.361.318-.347.361-.303.404-.289.433z"
          fill="url(#AG)" class="B" />
        <path
          d="M25.085 8.106l-.245.447-.202.391-.159.332-.087.246-.043.144.216.044.188.043.377.087.187.044.174.028.189.029.188.029.13-.245.145-.303.173-.333.203-.347.215-.39.232-.39.244-.376.264-.39.274-.362.289-.332.302-.303.303-.246.318-.202.318-.13.331-.057.333.013-.535-.288-.52-.13-.521.015-.49.145-.477.231-.462.332-.434.392-.404.433-.375.463-.332.477z"
          fill="url(#AH)" class="B" />
        <path
          d="M26.919 8.047l-.259.462-.415.839-.158.346-.145.289.174.029.144.043.13.043.116.043.131.043.115.044.116.029.129.027.13-.36.158-.361.159-.347.174-.346.203-.347.2-.318.232-.318.245-.304.264-.289.288-.26.289-.232.318-.217.347-.189.347-.158.376-.116.404-.087-.477-.317-.462-.173-.434-.043-.434.075-.404.173-.39.261-.361.318-.345.39-.318.42-.303.447z"
          fill="url(#AI)" class="B" />
        <path
          d="M28.32 7.8l-.318.419-.303.462-.264.505-.264.535-.215.566.375.058.189.044.188.058.187.043.188.058.188.044.189.028.129-.318.129-.333.131-.318.129-.333.158-.318.159-.304.189-.318.202-.289.245-.275.259-.274.304-.246.332-.231.376-.202.415-.188.475-.16.521-.13-.42-.159-.415-.1-.433-.029-.405.029-.415.087-.389.13-.39.202-.39.246-.361.29-.346.347z"
          fill="url(#AJ)" class="B" />
        <path
          d="M29.778 8.102l-.317.434-.288.477-.246.505-.226.521-.202.566.174.029.174.029.202.029.39.058.203.028.404.057.102-.404.145-.375.158-.376.201-.362.217-.332.245-.318.264-.304.289-.275.317-.264.346-.216.362-.204.375-.173.404-.13.419-.115.433-.072.448-.029-.549-.226-.55-.145-.505-.075-.505-.014-.477.075-.463.131-.433.188-.419.246-.374.304-.375.347z"
          fill="url(#AK)" class="B" />
        <path
          d="M31.137 8.578l-.303.39-.264.434-.226.462-.189.506-.143.535.174.014.145.014.144.029.145.029.144.028.144.03.174.043.187.029.246-.419.231-.405.201-.361.189-.361.202-.318.188-.303.188-.289.216-.264.231-.246.26-.217.29-.202.318-.188.375-.16.404-.144.477-.13.534-.112-.491-.075-.475-.043-.477.015-.463.058-.461.115-.434.145-.415.188-.405.231-.375.275-.36.318z"
          fill="url(#AL)" class="B" />
        <path
          d="M32.582 8.924l-.303.42-.275.433-.26.463-.231.462-.231.477.116.014.158.014.174.044.189.029.187.043.174.043.158.014.131.015.215-.433.231-.391.264-.376.273-.346.289-.333.303-.304.332-.274.347-.264.361-.232.376-.216.39-.188.404-.188.415-.16.433-.144.453-.13.461-.116-.722-.172-.679-.101-.621-.028-.577.058-.534.116-.491.174-.447.216-.405.29-.389.317-.346.362z"
          fill="url(#AM)" class="B" />
        <path
          d="M34.375 9.052l-.433.391-.39.434-.361.462-.317.506-.274.549.203.015.201.029.203.043.202.043.174.043.145.044.115.014.075-.014.29-.174.288-.203.303-.232.318-.264.318-.275.331-.289.347-.29.346-.303.362-.304.361-.304.376-.303.376-.275.39-.275.375-.246.404-.231.389-.203-.404-.075-.42-.014-.462.014-.476.073-.478.102-.49.145-.491.188-.49.232-.49.275-.462.318z"
          fill="url(#AN)" class="B" />
        <path
          d="M36.483 9.585l-.506.448-.519.448-.52.42-.519.39-.521.347.158.028.189.014.231.015.231.014.245.014h.463l.188-.001.39-.289.754-.608.346-.317.347-.304.333-.304.331-.303.332-.289.346-.26.332-.246.347-.217.361-.189.376-.159.391-.13.405-.072.415-.044-.361-.36-.39-.216-.405-.087-.415.029-.433.116-.462.217-.463.29-.49.331-.997.824z"
          fill="url(#AO)" class="B" />
        <path
          d="M37.581 10.134l-.419.376-.415.361-.418.362-.453.318-.447.305.143.014.188.028.218.03.217.014.216.03.189.027.143.015.087.014h.26l.264-.075.274-.131.289-.187.289-.232.318-.275.332-.304.709-.651.389-.346.415-.333.434-.318.475-.304.491-.275.521-.245.564-.189-.604-.143-.563-.057-.534.029-.507.102-.476.174-.462.217-.447.275-.433.304-.837.694z"
          fill="url(#AP)" class="B" />
        <path
          d="M38.78 10.899l-.433.374-.39.318-.361.245-.318.145-.274.044.226.029.246.043.274.043.288.044.289.028.289.044.275.014.246.014.404-.304.361-.289.331-.289.317-.275.289-.275.274-.274.289-.264.274-.245.275-.231.303-.217.317-.203.347-.187.376-.174.404-.144.462-.131.505-.115-.535-.304-.564-.129h-.549l-.566.113-.564.217-.564.303-.549.362-.534.39-.506.434-.491.434z"
          fill="url(#AQ)" class="B" />
        <path
          d="M9.291.851l.013-.174.014-.174.03-.172.042-.174L9.434 0l-.231.303-.174.333-.13.318-.075.332-.029.346v.347l.044.346.073.347.086.346.113.333.258.664.145.318.131.317.13.289.129.289-.028-.058-.014-.101-.016-.1v-.13l-.014-.16v-.332-.187l-.015-.189v-.188l-.015-.202-.015-.188-.014-.174-.029-.173-.028-.158-.044-.144L9.6 2.6l-.058-.158-.057-.16-.043-.158-.044-.174-.043-.187-.029-.174-.016-.189-.014-.173-.013-.188z"
          fill="url(#AR)" class="B" />
        <path
          d="M8.008 7.036l.246-.144.226-.146.247-.129.259-.145.264-.144-.226.226-.231.232-.232.231-.231.217-.245.226-.246.202-.245.204-.259.188-.245.173-.264.144-.245.131-.259.101-.264.087-.26.043-.261.014-.264-.013.275-.159.275-.174.259-.159.264-.158.245-.144.246-.159.232-.145.226-.158.246-.145.229-.144z"
          fill="url(#AS)" class="B" />
        <path
          d="M9.264 4.522l.13.172.144.159.13.174.129.173.13.174-.058-.187-.073-.189-.075-.203-.174-.404-.1-.189-.113-.188-.131-.187-.144-.173-.174-.143-.188-.145-.203-.13-.231-.101-.246-.087-.288-.057-.304-.029.202.116.189.13.187.13.173.13.174.129.158.144.16.159.16.144.289.318z"
          fill="url(#AT)" class="B" />
        <path
          d="M10.028 4.17l.045.264.087.528.057.264.059.274.029-.318.043-.303.029-.318.029-.317.014-.304.014-.303-.015-.304-.015-.288-.029-.289-.044-.264-.073-.264-.086-.246-.102-.216-.145-.202-.159-.174-.187-.158.058.289.043.289.058.289.044.264.029.274.043.264.03.264.043.264.028.264.044.264z"
          fill="url(#AU)" class="B" />
        <path
          d="M8.743 4.019l.245.264.232.264.201.216.175.204.144.158-.029-.433-.058-.376-.072-.318-.116-.288-.115-.245-.146-.217-.144-.202-.16-.189-.144-.187-.16-.187-.144-.203-.116-.231-.115-.264-.087-.289-.073-.347-.028-.39-.261.245-.157.275-.075.289-.015.304.058.303.116.318.16.318.188.317.217.303.226.304z"
          fill="url(#AV)" class="B" />
        <path
          d="M10.186 2.324l.057-.264.073-.264.101-.264.086-.264.115-.264-.415.405-.346.39-.245.362-.172.347-.116.332-.057.304-.014.304.029.274.074.264.07.245.102.231.102.201.087.203.086.173.058.174.029.145v-.304l.015-.288.013-.288.015-.29.014-.275.029-.274.029-.274.028-.264.044-.264.043-.274z"
          fill="url(#AW)" class="B" />
        <path
          d="M8.167 6.501l.448-.029.448-.059.216-.028-.188.087-.188.072-.202.087-.203.075-.216.073-.217.057-.226.059-.226.029-.231.015h-.246l-.245-.015-.247-.057-.246-.072-.245-.102-.245-.143-.247-.173.231.043.232.044.226.029.231.028.226.014.232.014h.448l.231-.015h.216z"
          fill="url(#AX)" class="B" />
        <path
          d="M5.179 8.266l-.146.101-.129.116-.116.115-.115.116-.102.13.101-.346.159-.305.186-.259.232-.246.259-.202.29-.189.317-.158.332-.131.347-.115.347-.116.722-.174.361-.073.347-.076.318-.058.318-.072-.159.058-.216.115-.264.175-.317.188-.318.202-.332.189-.318.173-.29.116-.173.03-.158.028-.174.043-.172.043-.175.073-.172.057-.159.075-.173.087-.158.087-.159.101z"
          fill="url(#AY)" class="B" />
        <path
          d="M8.298 7.194l.334-.173.302-.159.289-.146.245-.13.187-.116-.201.42-.203.347-.216.274-.202.246-.217.188-.217.174-.433.264-.215.131-.218.144-.216.145-.202.174-.203.216-.202.264-.187.304-.188.375-.13-.332-.044-.318.044-.317.116-.289.172-.275.231-.274.274-.264.303-.232.318-.231.332-.202z"
          fill="url(#AZ)" class="B" />
        <path
          d="M8.53 9.202l-.087.245-.075.264-.072.245-.058.264-.057.275-.145-.549-.075-.477-.015-.434.043-.375.087-.318.13-.289.158-.246.173-.203.203-.189.202-.159.217-.131.203-.115.187-.115.174-.101.129-.115.113-.103-.159.246-.159.246-.158.245-.143.232-.13.231-.13.245-.13.232-.115.231-.115.246-.101.245z"
          fill="url(#Aa)" class="B" />
      </g>
    </g>
  </symbol>
</svg>