<svg xmlns="http://www.w3.org/2000/svg" xmlns:xlink="http://www.w3.org/1999/xlink" viewBox="0 0 55 59" fill="#fff" fill-rule="evenodd" stroke="#000" stroke-linecap="round" stroke-linejoin="round"><use xlink:href="#E" x=".5" y=".5"/><defs><linearGradient id="A" x1="9.53%" y1="85.55%" x2="89.82%" y2="14.29%"><stop offset="0%" stop-color="#fcee39"/><stop offset="100%" stop-color="#f37b3d"/></linearGradient><linearGradient id="B" x1="8.56%" y1="9.44%" x2="99.62%" y2="95.24%"><stop offset="0%" stop-color="#ef5a6b"/><stop offset="57%" stop-color="#f26f4e"/><stop offset="100%" stop-color="#f37b3d"/></linearGradient><linearGradient id="C" x1="90.08%" y1="91.49%" x2="17.94%" y2="26.56%"><stop offset="0%" stop-color="#7c59a4"/><stop offset="39%" stop-color="#af4c92"/><stop offset="77%" stop-color="#dc4183"/><stop offset="96%" stop-color="#ed3d7d"/></linearGradient><linearGradient id="D" x1="91.35%" y1="7.56%" x2="18.92%" y2="77.69%"><stop offset="0%" stop-color="#ef5a6b"/><stop offset="36%" stop-color="#ee4e72"/><stop offset="100%" stop-color="#ed3d7d"/></linearGradient></defs><symbol id="E" overflow="visible"><g stroke="none" fill-rule="nonzero"><path d="M52.398 31.699a2.04 2.04 0 0 0 .664-1.414c.056-1.132-.811-2.098-1.943-2.163-.529-.023-1.048.15-1.458.485L12.664 48.869c-.869.362-1.597.997-2.074 1.809-.613 1.023-.789 2.249-.489 3.402s1.051 2.139 2.084 2.734a4.54 4.54 0 0 0 4.722-.089c.1-.1.22-.134.32-.22l34.404-24.2c.267-.184.518-.391.75-.619z" fill="url(#A)"/><path d="M52.47 28.741L24.328 1.105C23.38.071 21.895-.277 20.586.23s-2.172 1.766-2.174 3.169a3.38 3.38 0 0 0 .916 2.345 4.68 4.68 0 0 0 .533.437l29.755 25.473c.367.33.832.531 1.324.574 1.132.056 2.098-.811 2.163-1.943.002-.576-.221-1.13-.622-1.544z" fill="url(#B)"/><path d="M25.233 26.258c-.045 0-17.393-13.686-17.748-13.906l-.795-.4a4.94 4.94 0 0 0-6.172 2.45 4.94 4.94 0 0 0 1.845 6.379c.277.169.574.303.884.399.175.1 20.042 8.296 20.042 8.296.875.395 1.907.073 2.402-.749s.298-1.885-.459-2.474z" fill="url(#C)"/><path d="M21.788.001c-.728.011-1.436.242-2.029.664l-17.57 11.83c-.045.045-.1.045-.1.1h-.045a4.92 4.92 0 0 0 1.193 8.615c1.537.587 3.266.354 4.592-.619.294-.2.561-.437.795-.705L23.908 6.099a3.41 3.41 0 0 0 1.324-2.693A3.44 3.44 0 0 0 21.786.001z" fill="url(#D)"/><path d="M15.3 16.511h22.515v22.515H15.3z" fill="#000"/><path d="M17.24 34.789h8.433v1.413H17.24zm-.086-12.361l.664-.619c.125.202.338.333.574.354q.399 0 .399-.53v-2.339h1.015v2.339c.043.375-.087.749-.353 1.015s-.641.397-1.016.354c-.502.067-.998-.155-1.283-.574zm2.872-3.089h2.958v.839h-1.946v.565h1.765v.798h-1.765v.574h1.988v.884h-2.958zm4.292.881h-1.117v-.881h3.223v.884h-1.104v2.782h-1.002zm-7.077 3.618h1.898c.364-.01.722.102 1.015.319.151.17.23.392.22.619.011.375-.221.713-.574.839a.86.86 0 0 1 .705.884c0 .619-.53 1.015-1.372 1.015h-1.899zm2.119 1.149c0-.223-.175-.319-.44-.319h-.664v.664h.619c.319-.045.485-.134.485-.351zm-.351 1.059h-.798v.664h.798c.319 0 .485-.134.485-.351.003-.223-.172-.31-.479-.31zm1.672-2.208h1.723a1.55 1.55 0 0 1 1.193.399c.221.221.337.527.319.839a1.22 1.22 0 0 1-.75 1.149l.884 1.276h-1.149l-.75-1.104h-.447v1.104H20.69zm1.678 1.765c.351 0 .53-.175.53-.44 0-.319-.223-.44-.53-.44h-.66v.884z"/><path d="M25.099 23.838h.957l1.544 3.708h-1.104l-.265-.664h-1.414l-.265.664h-1.059zm.884 2.208l-.389-1.015-.399 1.015zm1.764-2.208h1.015v3.663h-1.015zm1.276 0h.925l1.5 1.947v-1.947h1.015v3.663h-.884l-1.541-1.978v2.029h-1.015zm3.532 3.137l.574-.664a1.74 1.74 0 0 0 1.193.44c.265 0 .44-.089.44-.265s-.134-.223-.619-.351c-.798-.176-1.372-.399-1.372-1.149 0-.664.53-1.193 1.413-1.193.541-.015 1.07.156 1.5.485l-.52.708a2.01 2.01 0 0 0-1.015-.354c-.265 0-.351.089-.351.223 0 .175.134.223.619.351.839.175 1.372.44 1.372 1.149 0 .75-.574 1.193-1.5 1.193-.63.049-1.253-.159-1.726-.578z"/></g></symbol></svg>