<svg xmlns="http://www.w3.org/2000/svg" xmlns:xlink="http://www.w3.org/1999/xlink" viewBox="0 0 257 193" fill="#fff" fill-rule="evenodd" stroke="#000" stroke-linecap="round" stroke-linejoin="round"><use xlink:href="#A" x=".5" y=".5"/><symbol id="A" overflow="visible"><g stroke="none" fill="#0080ff"><path d="M128 128.127v-24.845c26.297 0 46.711-26.079 36.613-53.757-3.705-10.17-11.914-18.379-22.157-22.084-27.678-10.025-53.757 10.315-53.757 36.613H63.927c0-41.916 40.536-74.606 84.486-60.876 19.178 6.03 34.506 21.285 40.463 40.463 13.73 43.95-18.96 84.486-60.876 84.486z" fill-rule="nonzero"/><path d="M103.3 103.428V78.656h24.772v24.772zm-18.96 18.96v-18.96h18.96v18.96zm0-18.96H68.431V87.519H84.34v15.909z"/><path d="M22.084 153.263c-3.196-2.252-7.264-3.342-11.914-3.342H0v32.327h10.243c4.649 0 8.717-1.162 11.914-3.56 1.743-1.235 3.124-2.979 4.141-5.158.944-2.179 1.453-4.795 1.453-7.628s-.508-5.376-1.453-7.555c-1.017-2.179-2.397-3.923-4.213-5.085zM5.957 155.37h3.196c3.56 0 6.465.727 8.717 2.107 2.47 1.525 3.705 4.359 3.705 8.427 0 4.213-1.235 7.192-3.705 8.79-2.107 1.38-5.012 2.107-8.645 2.107H5.957v-21.43zm28.84-5.884c-1.017 0-1.816.363-2.543 1.017-.654.654-1.017 1.453-1.017 2.47s.363 1.816 1.017 2.543c.654.654 1.526 1.017 2.543 1.017.944 0 1.816-.363 2.543-1.017.654-.654 1.017-1.526 1.017-2.543s-.363-1.816-1.017-2.47c-.726-.654-1.598-1.017-2.543-1.017zm-2.906 9.952h5.739v22.81h-5.739zm26.588 1.889c-1.743-1.526-3.632-2.47-5.739-2.47-3.196 0-5.812 1.09-7.846 3.269-2.034 2.107-3.124 4.867-3.124 8.209 0 3.196 1.017 5.957 3.051 8.136 2.034 2.107 4.722 3.196 7.846 3.196 2.179 0 4.141-.581 5.666-1.816v.508c0 1.889-.508 3.342-1.526 4.359s-2.397 1.525-4.141 1.525c-2.615 0-4.286-1.017-6.32-3.777l-3.923 3.777.073.145c.872 1.162 2.107 2.325 3.85 3.414 1.671 1.09 3.85 1.671 6.393 1.671 3.414 0 6.175-1.017 8.209-3.124S64 183.483 64 180.068v-20.704h-5.666v1.961zm-1.526 13.512c-1.017 1.162-2.325 1.671-3.923 1.671-1.671 0-2.906-.581-3.923-1.671-1.017-1.162-1.453-2.615-1.453-4.431 0-1.889.509-3.342 1.453-4.504s2.325-1.671 3.923-1.671c1.671 0 2.906.581 3.923 1.671 1.017 1.162 1.526 2.688 1.526 4.504s-.508 3.269-1.526 4.431zm12.059-15.401h5.739v22.81h-5.739zm2.906-9.952c-1.017 0-1.816.363-2.543 1.017-.654.654-1.017 1.453-1.017 2.47s.363 1.816 1.017 2.543c.654.654 1.526 1.017 2.543 1.017.944 0 1.816-.363 2.543-1.017.654-.654 1.017-1.526 1.017-2.543s-.363-1.816-1.017-2.47c-.726-.654-1.526-1.017-2.543-1.017zm15.401 3.778h-5.666v6.175h-3.269v5.23h3.269v9.444c0 2.978.581 5.085 1.743 6.32s3.269 1.816 6.175 1.816l2.761-.073h.291v-5.23l-1.961.073c-1.38 0-2.252-.218-2.688-.726s-.654-1.526-.654-3.051v-8.645h5.376v-5.23H87.32v-6.102zm32.254-3.414h5.739v32.4h-5.739zm63.71 24.263c-1.017 1.162-2.107 2.179-2.906 2.688s-1.816.799-2.978.799c-1.671 0-3.051-.581-4.141-1.889-1.09-1.235-1.671-2.906-1.671-4.794 0-1.961.581-3.56 1.671-4.795s2.47-1.889 4.141-1.889c1.816 0 3.778 1.162 5.448 3.124l3.778-3.632c-2.47-3.196-5.594-4.722-9.371-4.722-3.124 0-5.884 1.162-8.136 3.414s-3.342 5.085-3.342 8.499 1.162 6.247 3.342 8.499c2.252 2.252 4.94 3.414 8.136 3.414 4.141 0 7.483-1.816 9.807-5.085l-3.778-3.632zm23.609-11.478c-.799-1.162-1.889-2.034-3.269-2.688s-2.978-1.017-4.722-1.017c-3.196 0-5.812 1.162-7.773 3.487-1.889 2.325-2.906 5.158-2.906 8.572 0 3.487 1.09 6.32 3.124 8.499 2.107 2.179 4.867 3.269 8.281 3.269 3.85 0 7.047-1.598 9.444-4.649l.145-.145-3.778-3.632c-.363.436-.872.872-1.308 1.308-.581.508-1.09.944-1.671 1.235-.872.436-1.816.654-2.906.654-1.598 0-2.906-.436-3.923-1.38-.944-.872-1.526-2.034-1.671-3.487h15.183l.073-2.107a15.95 15.95 0 0 0-.581-4.213 12.3 12.3 0 0 0-1.744-3.705zm-12.568 5.376c.291-1.09.799-2.034 1.526-2.688.799-.799 1.816-1.162 2.978-1.162 1.38 0 2.47.363 3.196 1.162.654.726 1.09 1.598 1.162 2.688h-8.863zm34.579-6.831c-1.744-1.453-4.141-2.252-7.119-2.252-1.84-.005-3.655.418-5.303 1.235-1.525.726-2.978 2.034-3.923 3.632l.073.073 3.705 3.487c1.526-2.397 3.196-3.269 5.448-3.269 1.235 0 2.179.291 2.978.944.726.654 1.162 1.453 1.162 2.47v1.09c-1.453-.436-2.833-.654-4.213-.654-2.833 0-5.158.654-6.901 1.961s-2.615 3.269-2.615 5.739c0 2.179.726 3.85 2.252 5.158 1.525 1.235 3.342 1.889 5.521 1.889s4.213-.872 6.102-2.397v1.889h5.666V167.5c-.218-2.688-1.09-4.867-2.833-6.32zm-10.17 12.35c.654-.436 1.598-.654 2.76-.654 1.38 0 2.833.291 4.359.799v2.252c-1.235 1.162-2.906 1.744-4.94 1.744-1.017 0-1.743-.218-2.325-.654-.508-.436-.799-.944-.799-1.671 0-.799.291-1.38.944-1.816zm34.87-11.914c-1.598-1.816-3.85-2.688-6.683-2.688-2.252 0-4.141.654-5.521 1.961v-1.38h-5.594v22.738h5.739V169.68c0-1.743.436-3.124 1.235-4.068s1.889-1.453 3.414-1.453c1.308 0 2.252.436 2.978 1.308s1.09 2.107 1.09 3.56v13.221H256v-13.221c0-3.124-.799-5.666-2.397-7.41zm-141.222-.436c-1.744-1.453-4.141-2.252-7.119-2.252-1.84-.005-3.655.418-5.303 1.235-1.526.726-2.978 2.034-3.923 3.632l.073.073 3.705 3.487c1.526-2.397 3.196-3.269 5.448-3.269 1.235 0 2.179.291 2.978.944.727.654 1.162 1.453 1.162 2.47v1.09c-1.453-.436-2.833-.654-4.213-.654-2.833 0-5.158.654-6.901 1.961s-2.615 3.269-2.615 5.739c0 2.179.726 3.85 2.252 5.158 1.526 1.235 3.342 1.889 5.521 1.889s4.213-.872 6.102-2.397v1.889h5.666V167.5c-.218-2.688-1.09-4.867-2.833-6.32zm-10.17 12.35c.654-.436 1.598-.654 2.761-.654 1.38 0 2.833.291 4.359.799v2.252c-1.235 1.162-2.906 1.744-4.94 1.744-1.017 0-1.743-.218-2.325-.654-.509-.436-.799-.944-.799-1.671 0-.799.291-1.38.944-1.816zm43.95 9.226c-9.226 0-16.708-7.483-16.708-16.708s7.482-16.708 16.708-16.708 16.708 7.482 16.708 16.708-7.482 16.708-16.708 16.708zm0-27.532c-5.957 0-10.824 4.867-10.824 10.824s4.867 10.824 10.824 10.824 10.824-4.867 10.824-10.824-4.867-10.824-10.824-10.824z" fill-rule="nonzero"/></g></symbol></svg>